<svg width="42" height="42" viewBox="0 0 42 42" fill="none" xmlns="http://www.w3.org/2000/svg">
<path d="M32.25 36H9.75C8.71485 36 7.83105 35.6338 7.09863 34.9013C6.36621 34.1689 6 33.2852 6 32.25V13.5C6 12.4648 6.36621 11.5811 7.09863 10.8486C7.83105 10.1162 8.71485 9.75 9.75 9.75H11.625V7.875C11.625 7.34766 11.8057 6.90332 12.167 6.54199C12.5283 6.18066 12.9727 6 13.5 6C14.0273 6 14.4717 6.18066 14.833 6.54199C15.1943 6.90332 15.375 7.34766 15.375 7.875V9.75H19.125V7.875C19.125 7.34766 19.3057 6.90332 19.667 6.54199C20.0283 6.18066 20.4727 6 21 6C21.5273 6 21.9717 6.18066 22.333 6.54199C22.6943 6.90332 22.875 7.34766 22.875 7.875V9.75H26.625V7.875C26.625 7.34766 26.8057 6.90332 27.167 6.54199C27.5283 6.18066 27.9727 6 28.5 6C29.0273 6 29.4717 6.18066 29.833 6.54199C30.1943 6.90332 30.375 7.34766 30.375 7.875V9.75H32.25C33.2852 9.75 34.1689 10.1162 34.9013 10.8486C35.6338 11.5811 36 12.4648 36 13.5V32.25C36 33.2852 35.6338 34.1689 34.9013 34.9013C34.1689 35.6338 33.2852 36 32.25 36ZM29.833 17.7627C29.4717 17.4014 29.042 17.2207 28.5439 17.2207C28.0459 17.2207 27.6113 17.3965 27.2402 17.748L19.125 25.8926L14.7305 21.498C14.3594 21.1465 13.9248 20.9707 13.4268 20.9707C12.9287 20.9707 12.499 21.1514 12.1377 21.5127C11.7764 21.8741 11.5957 22.3037 11.5957 22.8017C11.5957 23.2998 11.7813 23.7246 12.1523 24.0762L17.5137 29.4375C17.6309 29.6524 17.709 29.789 17.748 29.8477C18.1191 30.1993 18.5781 30.3652 19.125 30.3457C19.6523 30.3652 20.1015 30.1993 20.4727 29.8477C20.5117 29.789 20.5899 29.6524 20.7071 29.4375L29.8477 20.3262C30.1993 19.9746 30.375 19.5498 30.375 19.0517C30.375 18.5537 30.1943 18.1241 29.833 17.7627Z" fill="white"/>
</svg>
