<svg width="42" height="42" viewBox="0 0 42 42" fill="none" xmlns="http://www.w3.org/2000/svg">
<path d="M39.6318 20.1289C37.892 12.2629 35.2735 8.06458 31.3893 6.91779C30.5728 6.67829 29.726 6.55865 28.8751 6.56259C27.7504 6.56259 26.771 6.83657 25.735 7.12696C24.4865 7.47724 23.0681 7.87509 21.0001 7.87509C18.9321 7.87509 17.5129 7.47805 16.262 7.12779C15.2251 6.83657 14.2465 6.56259 13.1251 6.56259C12.2453 6.55954 11.3693 6.67881 10.5223 6.91696C6.65858 8.05884 4.04179 12.2556 2.27647 20.124C0.378273 28.5912 1.31261 33.9373 4.89656 35.1775C5.38782 35.3507 5.90473 35.44 6.42562 35.4417C8.88082 35.4417 10.8496 33.3967 12.1949 31.7225C13.7149 29.8274 15.4941 28.866 21.0001 28.866C25.9178 28.866 27.953 29.533 29.711 31.7225C30.816 33.0989 31.8603 34.062 32.902 34.6682C34.2876 35.4736 35.6722 35.6525 37.0168 35.1907C39.1348 34.468 40.3488 32.5574 40.6261 29.5109C40.8369 27.1746 40.512 24.1058 39.6318 20.1289ZM17.0626 19.6876H14.4376V22.3126C14.4376 22.6607 14.2994 22.9946 14.0531 23.2407C13.807 23.4868 13.4732 23.6251 13.1251 23.6251C12.777 23.6251 12.4432 23.4868 12.197 23.2407C11.9509 22.9946 11.8126 22.6607 11.8126 22.3126V19.6876H9.18761C8.83952 19.6876 8.50567 19.5493 8.25954 19.3032C8.01339 19.0571 7.87511 18.7232 7.87511 18.3751C7.87511 18.027 8.01339 17.6932 8.25954 17.4471C8.50567 17.2008 8.83952 17.0626 9.18761 17.0626H11.8126V14.4376C11.8126 14.0895 11.9509 13.7557 12.197 13.5095C12.4432 13.2634 12.777 13.1251 13.1251 13.1251C13.4732 13.1251 13.807 13.2634 14.0531 13.5095C14.2994 13.7557 14.4376 14.0895 14.4376 14.4376V17.0626H17.0626C17.4107 17.0626 17.7445 17.2008 17.9906 17.4471C18.2369 17.6932 18.3751 18.027 18.3751 18.3751C18.3751 18.7232 18.2369 19.0571 17.9906 19.3032C17.7445 19.5493 17.4107 19.6876 17.0626 19.6876ZM23.9532 20.0157C23.6287 20.0157 23.3116 19.9195 23.0418 19.7392C22.7719 19.559 22.5616 19.3028 22.4374 19.0029C22.3133 18.7032 22.2808 18.3733 22.3442 18.055C22.4075 17.7367 22.5637 17.4444 22.7932 17.215C23.0226 16.9855 23.315 16.8293 23.6332 16.766C23.9514 16.7027 24.2812 16.7352 24.5811 16.8594C24.8809 16.9835 25.1371 17.1938 25.3174 17.4636C25.4977 17.7334 25.5939 18.0506 25.5939 18.3751C25.5939 18.8103 25.421 19.2275 25.1134 19.5352C24.8057 19.8429 24.3883 20.0157 23.9532 20.0157ZM27.5626 23.6251C27.2379 23.6251 26.9207 23.5288 26.6507 23.3484C26.3808 23.1679 26.1705 22.9114 26.0465 22.6114C25.9225 22.3114 25.8901 21.9813 25.9538 21.6629C26.0175 21.3445 26.1742 21.0522 26.4039 20.8229C26.6338 20.5936 26.9265 20.4378 27.245 20.3749C27.5635 20.312 27.8935 20.3451 28.1933 20.47C28.493 20.5947 28.7489 20.8057 28.9287 21.076C29.1086 21.3464 29.2041 21.6639 29.2032 21.9885C29.2021 22.423 29.0288 22.8392 28.7212 23.1461C28.4138 23.4528 27.997 23.6251 27.5626 23.6251ZM27.5626 16.4063C27.2382 16.4063 26.9209 16.3101 26.6512 16.1298C26.3814 15.9496 26.1711 15.6933 26.0469 15.3936C25.9227 15.0938 25.8903 14.7638 25.9535 14.4456C26.0168 14.1274 26.1731 13.8351 26.4025 13.6056C26.632 13.3762 26.9243 13.2199 27.2425 13.1566C27.5607 13.0933 27.8907 13.1258 28.1905 13.25C28.4902 13.3742 28.7464 13.5844 28.9267 13.8542C29.107 14.124 29.2032 14.4413 29.2032 14.7657C29.2032 15.2008 29.0303 15.6181 28.7227 15.9258C28.415 16.2336 27.9977 16.4063 27.5626 16.4063ZM31.172 20.0157C30.8475 20.0157 30.5303 19.9195 30.2605 19.7392C29.9907 19.559 29.7804 19.3028 29.6563 19.0029C29.5321 18.7032 29.4996 18.3733 29.5629 18.055C29.6262 17.7367 29.7824 17.4444 30.0119 17.215C30.2413 16.9855 30.5336 16.8293 30.8519 16.766C31.1702 16.7027 31.5001 16.7352 31.7998 16.8594C32.0997 16.9835 32.3559 17.1938 32.5361 17.4636C32.7164 17.7334 32.8126 18.0506 32.8126 18.3751C32.8126 18.8103 32.6398 19.2275 32.3321 19.5352C32.0244 19.8429 31.6072 20.0157 31.172 20.0157Z" fill="white"/>
</svg>
