<svg width="42" height="42" viewBox="0 0 42 42" fill="none" xmlns="http://www.w3.org/2000/svg">
<path d="M9.625 3.50195H29.75C30.9103 3.50195 32.0232 3.96289 32.8436 4.78336C33.6641 5.60383 34.125 6.71663 34.125 7.87695V19.7997C32.1309 19.1536 29.9969 19.0711 27.9589 19.5613C25.9208 20.0514 24.0579 21.0953 22.5757 22.5776C21.0933 24.0598 20.0495 25.9228 19.5594 27.9608C19.0692 29.9989 19.1516 32.1329 19.7977 34.1269H7.875C7.875 34.591 8.05938 35.0362 8.38756 35.3644C8.71575 35.6926 9.16087 35.8769 9.625 35.8769H20.531C21.032 36.8371 21.6673 37.721 22.4175 38.5019H9.625C8.46468 38.5019 7.35188 38.041 6.53141 37.2205C5.71094 36.4001 5.25 35.2873 5.25 34.1269V7.87695C5.25 6.71663 5.71094 5.60383 6.53141 4.78336C7.35188 3.96289 8.46468 3.50195 9.625 3.50195ZM12.25 8.75195C11.7859 8.75195 11.3407 8.93632 11.0126 9.26451C10.6844 9.5927 10.5 10.0378 10.5 10.5019V12.252C10.5 12.7161 10.6844 13.1612 11.0126 13.4893C11.3407 13.8176 11.7859 14.002 12.25 14.002H26.25C26.7141 14.002 27.1593 13.8176 27.4874 13.4893C27.8157 13.1612 28 12.7161 28 12.252V10.5019C28 10.0378 27.8157 9.5927 27.4874 9.26451C27.1593 8.93632 26.7141 8.75195 26.25 8.75195H12.25Z" fill="white"/>
<path d="M40.25 30.625C40.25 28.0723 39.236 25.6242 37.4309 23.8191C35.6258 22.014 33.1778 21 30.625 21C28.0723 21 25.6242 22.014 23.8191 23.8191C22.014 25.6242 21 28.0723 21 30.625C21 33.1778 22.014 35.6258 23.8191 37.4309C25.6242 39.236 28.0723 40.25 30.625 40.25C33.1778 40.25 35.6258 39.236 37.4309 37.4309C39.236 35.6258 40.25 33.1778 40.25 30.625ZM29.5995 26.4197L34.51 29.6398C34.6622 29.7374 34.787 29.8722 34.8727 30.0314C34.9584 30.1905 35.0023 30.369 35 30.5497C35.0002 30.7317 34.957 30.9111 34.874 31.073C34.7957 31.2333 34.6761 31.3698 34.5275 31.4685L29.6152 34.8197C29.5298 34.8773 29.4368 34.9226 29.3387 34.9545C29.1112 35.0271 28.865 35.0128 28.6475 34.9142C28.5222 34.8555 28.4079 34.7756 28.3097 34.678C28.2149 34.5748 28.1382 34.4565 28.0822 34.328C28.0276 34.1965 27.9997 34.0556 28 33.9133V27.3367C27.999 27.1262 28.0593 26.9199 28.1733 26.7428C28.2873 26.5658 28.4501 26.4256 28.6423 26.3393C28.7948 26.2677 28.9635 26.2374 29.1313 26.2512C29.2993 26.2651 29.4606 26.3226 29.5995 26.418V26.4197Z" fill="white"/>
</svg>
