<svg width="42" height="42" viewBox="0 0 42 42" fill="none" xmlns="http://www.w3.org/2000/svg">
<path d="M12.25 19.252C11.2158 19.252 10.1918 19.0483 9.23636 18.6524C8.28093 18.2567 7.4128 17.6767 6.68153 16.9454C5.95027 16.2142 5.37021 15.346 4.97445 14.3906C4.57869 13.4351 4.37499 12.4111 4.37499 11.377C4.37499 10.3428 4.57869 9.31876 4.97445 8.36332C5.37021 7.40787 5.95027 6.53975 6.68153 5.80849C7.4128 5.07723 8.28093 4.49716 9.23636 4.1014C10.1918 3.70564 11.2158 3.50195 12.25 3.50195C14.3386 3.50195 16.3416 4.33164 17.8185 5.80849C19.2953 7.28534 20.125 9.28837 20.125 11.377C20.125 13.4656 19.2953 15.4686 17.8185 16.9454C16.3416 18.4222 14.3386 19.252 12.25 19.252ZM30.625 26.2519C28.7684 26.2519 26.988 25.5145 25.6753 24.2017C24.3625 22.8889 23.625 21.1085 23.625 19.252C23.625 17.3955 24.3625 15.6149 25.6753 14.3022C26.988 12.9895 28.7684 12.252 30.625 12.252C32.4815 12.252 34.2621 12.9895 35.5748 14.3022C36.8874 15.6149 37.6249 17.3955 37.6249 19.252C37.6249 21.1085 36.8874 22.8889 35.5748 24.2017C34.2621 25.5145 32.4815 26.2519 30.625 26.2519ZM30.625 28.0019C32.7136 28.0019 34.7166 28.8317 36.1935 30.3085C37.6703 31.7853 38.5 33.7883 38.5 35.8769V36.7519H22.75V35.8769C22.75 33.7883 23.5797 31.7853 25.0566 30.3085C26.5334 28.8317 28.5364 28.0019 30.625 28.0019ZM12.25 21.0019C13.3991 21.0019 14.5369 21.2282 15.5984 21.668C16.6601 22.1077 17.6247 22.7523 18.4372 23.5647C19.2497 24.3773 19.8942 25.3419 20.3339 26.4034C20.7736 27.4651 21 28.6029 21 29.752V36.7519H3.5V29.752C3.5 27.4314 4.42187 25.2058 6.06281 23.5647C7.70375 21.9238 9.92935 21.0019 12.25 21.0019Z" fill="white"/>
</svg>
