<svg width="57" height="57" viewBox="0 0 57 57" fill="none" xmlns="http://www.w3.org/2000/svg">
<path fill-rule="evenodd" clip-rule="evenodd" d="M28.5 0C29.1193 0.000127683 29.7217 0.201958 30.2161 0.574953C30.7105 0.947948 31.0699 1.47181 31.24 2.06727L34.3296 12.8825C34.9949 15.2116 36.2429 17.3328 37.9557 19.0456C39.6686 20.7585 41.7899 22.0064 44.1191 22.6716L54.9347 25.7611C55.5298 25.9316 56.0532 26.2912 56.4258 26.7855C56.7985 27.2798 57 27.882 57 28.501C57 29.12 56.7985 29.7222 56.4258 30.2166C56.0532 30.7109 55.5298 31.0705 54.9347 31.2409L44.1191 34.3304C41.7899 34.9956 39.6686 36.2436 37.9557 37.9564C36.2429 39.6693 34.9949 41.7904 34.3296 44.1196L31.24 54.9348C31.0695 55.5299 30.7099 56.0533 30.2156 56.4259C29.7213 56.7985 29.119 57 28.5 57C27.881 57 27.2787 56.7985 26.7844 56.4259C26.2901 56.0533 25.9305 55.5299 25.76 54.9348L22.6704 44.1196C22.0051 41.7904 20.7572 39.6693 19.0443 37.9564C17.3314 36.2436 15.2101 34.9956 12.8809 34.3304L2.06529 31.2409C1.47019 31.0705 0.946766 30.7109 0.574154 30.2166C0.201541 29.7222 0 29.12 0 28.501C0 27.882 0.201541 27.2798 0.574154 26.7855C0.946766 26.2912 1.47019 25.9316 2.06529 25.7611L12.8809 22.6716C15.2101 22.0064 17.3314 20.7585 19.0443 19.0456C20.7572 17.3328 22.0051 15.2116 22.6704 12.8825L25.76 2.06727C25.9301 1.47181 26.2895 0.947948 26.7839 0.574953C27.2783 0.201958 27.8807 0.000127683 28.5 0Z" fill="#FDCC03"/>
</svg>
