<?xml version="1.0" standalone="no"?>
<!DOCTYPE svg PUBLIC "-//W3C//DTD SVG 20010904//EN"
 "http://www.w3.org/TR/2001/REC-SVG-20010904/DTD/svg10.dtd">
<svg version="1.0" xmlns="http://www.w3.org/2000/svg"
 width="1000.000000pt" height="1000.000000pt" viewBox="0 0 1000.000000 1000.000000"
 preserveAspectRatio="xMidYMid meet">
<metadata>
Created by potrace 1.14, written by Peter Selinger 2001-2017
</metadata>
<g transform="translate(0.000000,1000.000000) scale(0.100000,-0.100000)"
fill="#000000" stroke="none">
<path d="M985 8340 c0 -588 2 -1070 5 -1070 3 0 486 482 1074 1070 l1068 1070
-1074 0 -1073 0 0 -1070z"/>
<path d="M2455 7940 l-1470 -1470 1 -1017 c0 -560 3 -1057 7 -1105 7 -90 17
-188 22 -223 2 -11 4 -32 4 -47 1 -16 5 -28 10 -28 5 0 900 892 1990 1982
l1982 1982 1987 -1987 c1092 -1092 1987 -1985 1988 -1984 2 3 14 100 20 167 2
30 7 73 10 95 3 22 7 518 9 1103 l2 1062 -1469 1470 -1470 1470 -1077 0 -1076
0 -1470 -1470z"/>
<path d="M7938 8340 c588 -588 1072 -1070 1075 -1070 2 0 4 482 4 1070 l0
1070 -1075 0 -1074 0 1070 -1070z"/>
<path d="M3090 5310 c-1051 -1052 -1910 -1918 -1910 -1925 0 -34 119 -340 194
-497 38 -80 124 -240 187 -348 91 -155 278 -411 414 -565 49 -55 96 -108 104
-118 15 -16 115 82 1468 1435 l1453 1453 1453 -1453 1453 -1453 69 77 c361
398 638 865 821 1383 l33 94 -1915 1915 -1914 1914 -1910 -1912z"/>
<path d="M3752 2707 l-1243 -1243 108 -80 c194 -144 379 -257 600 -368 72 -36
134 -66 137 -66 3 0 34 -13 68 -28 104 -48 381 -147 464 -167 11 -3 82 -21
159 -40 77 -19 154 -37 170 -39 17 -3 50 -9 75 -14 25 -6 68 -13 95 -17 28 -3
59 -8 70 -10 11 -2 43 -6 70 -9 28 -3 84 -9 125 -13 148 -16 702 -8 805 11 11
2 47 7 80 11 197 23 515 96 720 165 66 22 127 42 135 44 8 3 71 28 140 56 306
126 620 306 883 504 l79 59 -1244 1244 c-683 683 -1245 1243 -1248 1243 -3 0
-564 -559 -1248 -1243z"/>
</g>
</svg>
