<svg id="Capa_1" enable-background="new 0 0 512 512" height="512" viewBox="0 0 512 512" width="512" xmlns="http://www.w3.org/2000/svg"><g><g><g><g><g><g><g><g><circle cx="256" cy="256" fill="#ff583e" r="256"/></g></g></g></g></g></g></g><path d="m312.814 505.673c114.042-25.841 199.186-127.814 199.186-249.673 0-17.487-1.754-34.565-5.094-51.067l-65.296-65.446-65.256-3.096-82.497 82.036-78.699-78.699-120.326-7.148-20.516 121.118 156.05 156.05-6.338 7.138 2.059 2.212z" fill="#db0404"/><g><path d="m109.097 243.338c-23.424-15.932-31.835-40.815-18.963-67.624l-21.183.194-13.082 48.717c4.985 11.989 10.778 24.135 22.201 31.972.71.487 1.632 1.1 2.365 1.565 26.143 16.555 59.118 13.486 81.667-5.331-14.465 4.657-39.457-.278-53.005-9.493z" fill="#23272b"/></g><g><path d="m74.13 197.316c10.826-29.319 53.076-44.27 80.362-40.65l-18.846-20.274-57.957-3.171c-12.226 9.057-21.894 21.818-27.058 37.351-10.769 32.397 1.292 66.888 27.44 86.025-8.836-14.25-10.203-42.324-3.941-59.281z" fill="#414952"/></g><g><path d="m240.102 241.084c16.429-53.818-13.881-110.764-67.699-127.193-43.409-13.251-88.853 3.905-113.429 39.278 18.649-12.208 42.381-16.355 65.365-9.339 37.198 11.355 59.685 48.058 54.316 85.394l59.312 18.106c.771-2.046 1.488-4.125 2.135-6.246z" fill="#636978"/></g><g><path d="m402.903 243.338c23.424-15.932 31.835-40.815 18.963-67.624l21.183.194 13.082 48.717c-4.985 11.989-10.778 24.135-22.202 31.972-.71.487-1.632 1.1-2.365 1.565-26.143 16.555-59.118 13.486-81.667-5.331 14.466 4.657 39.458-.278 53.006-9.493z" fill="#040505"/></g><g><path d="m437.87 197.316c-10.826-29.319-53.076-44.27-80.362-40.65l18.846-20.274 57.957-3.171c12.226 9.057 21.894 21.818 27.058 37.351 10.77 32.397-1.292 66.888-27.44 86.025 8.836-14.25 10.203-42.324 3.941-59.281z" fill="#23272b"/></g><g><path d="m271.897 241.084c-16.429-53.818 13.881-110.764 67.699-127.193 43.409-13.251 88.853 3.905 113.429 39.278-18.649-12.208-42.381-16.355-65.365-9.339-37.198 11.355-59.685 48.058-54.316 85.394l-59.312 18.106c-.77-2.046-1.487-4.125-2.135-6.246z" fill="#414952"/></g><g><g><path d="m181.585 255.904-29.806-11.36c-26.549-10.118-39.868-39.843-29.75-66.392l57.63 21.965z" fill="#cdd2e1"/></g><g><path d="m330.415 255.904 29.806-11.36c26.549-10.118 39.868-39.843 29.75-66.392l-57.63 21.965z" fill="#afb4c8"/></g></g><g><path d="m268.675 429.501c17.257-5.391 29.782-21.499 29.782-40.532v-30.157l48.427-46.796v-119.409h-181.768v119.409l48.427 46.796v30.157c0 19.03 12.52 35.135 29.772 40.529z" fill="#fff"/></g><g><path d="m256.359 192.607v233.44s8.424 4.663 12.32 3.446c17.255-5.391 29.778-21.492 29.778-40.524v-30.157l48.427-46.796v-119.409z" fill="#e9edf5"/></g><g><g><g><path d="m315.968 253.698c7.731 7.731 7.731 20.265 0 27.996s-20.265 7.731-27.996 0z" fill="#414952"/></g></g><g><g><path d="m196.032 253.698c-7.731 7.731-7.731 20.265 0 27.996s20.265 7.731 27.996 0z" fill="#636978"/></g></g></g><g><path d="m243.318 393.364v36.134c4.005 1.252 8.264 1.927 12.681 1.927 4.417 0 8.677-.675 12.681-1.927v-36.134l13.482-21.93h-52.327z" fill="#707789"/></g><g><path d="m256.359 371.434v59.984c4.289-.036 8.427-.702 12.323-1.92v-36.134l13.482-21.93z" fill="#555a66"/></g></g></svg>