<svg id="Capa_1" enable-background="new 0 0 512 512" height="512" viewBox="0 0 512 512" width="512" xmlns="http://www.w3.org/2000/svg"><g><g><g><g><g><g id="XMLID_1568_"><g id="XMLID_1569_"><g id="XMLID_1570_"><g id="XMLID_1571_"><g id="XMLID_1572_"><g id="XMLID_1573_"><g id="XMLID_1574_"><g id="XMLID_1575_"><g id="XMLID_1576_"><g id="XMLID_1577_"><g id="XMLID_1578_"><g id="XMLID_1579_"><g id="XMLID_1580_"><g id="XMLID_1581_"><g id="XMLID_1582_"><circle cx="256" cy="256" fill="#ef3c5f" r="256"/></g></g></g></g></g></g></g></g></g></g></g></g></g></g></g></g></g></g></g><path d="m512 256c0-31.87-5.841-62.372-16.482-90.515l-49.351-49.351-238.857 87.826-128.489 101.944 204.628 204.628c128.476-13.697 228.551-122.421 228.551-254.532z" fill="#c11654"/><g><path d="m202.885 150.125-37.004-37.854c-18.523-18.949-46.418-25.311-71.325-16.268-26.7 9.694-44.477 35.061-44.477 63.466v91.167c0 29.665 19.363 55.856 47.725 64.553 19.987 6.129 41.708-.12 55.383-15.932 10.768-12.452 18.498-27.234 22.58-43.182z" fill="#9b9b9b"/><path d="m309.115 150.125 37.004-37.854c18.523-18.949 46.418-25.311 71.325-16.268 26.699 9.694 44.477 35.061 44.477 63.466v91.167c0 29.665-19.363 55.856-47.725 64.553-19.987 6.129-41.708-.12-55.383-15.932-10.768-12.452-18.498-27.234-22.58-43.182z" fill="#777"/></g><path d="m256 111.002h-28.082c-56.814 0-102.87 46.057-102.87 102.87v11.011c0 46.714 37.869 84.583 84.583 84.583h18.87v8.206c0 36.91 9.664 72.763 27.484 104.217 11.452 20.214 17.044-113.152 17.044-113.152s39.785-197.735-17.029-197.735z" fill="#bcbcbc"/><g><path d="m284.082 111.002h-28.082v310.878c11.452 20.214 26.256 38.619 44.044 54.312l36.386-41.244c-33.638-29.675-52.93-72.42-52.93-117.275v-8.206h18.87c46.714 0 84.583-37.869 84.583-84.583v-11.011c0-56.815-46.057-102.871-102.871-102.871z" fill="#9b9b9b"/></g><g><g><ellipse cx="207.31" cy="182.221" fill="#494949" rx="21.739" ry="21.739" transform="matrix(.099 -.995 .995 .099 5.468 370.481)"/><ellipse cx="304.69" cy="182.221" fill="#2d2d2d" rx="21.739" ry="21.739" transform="matrix(.331 -.944 .944 .331 31.857 409.383)"/></g><path d="m228.5 252.919h-35.435v39.522c0 16.833-3.378 33.495-9.934 48.999l-9.775 23.116 42.121-27.24c8.12-5.251 13.023-14.261 13.023-23.931z" fill="#fff"/><path d="m282.951 252.919h35.435v39.522c0 16.833 3.378 33.495 9.934 48.999l9.775 23.116-42.121-27.24c-8.12-5.251-13.023-14.261-13.023-23.931z" fill="#e0e0e0"/></g></g></svg>