<svg height="512pt" viewBox="0 0 512 512" width="512pt" xmlns="http://www.w3.org/2000/svg"><path d="m512 256c0 141.386719-114.613281 256-256 256s-256-114.613281-256-256 114.613281-256 256-256 256 114.613281 256 256zm0 0" fill="#a260e5"/><path d="m512 256c0-13.519531-1.054688-26.789062-3.074219-39.738281l-141.308593-141.3125-40.617188 93.769531-71-93.769531-19.5 103.050781-92.117188-103.050781 23.230469 102.550781-52.964843 221.550781 111.167968 111.167969c9.902344 1.164062 19.96875 1.78125 30.183594 1.78125 141.386719 0 256-114.613281 256-256zm0 0" fill="#7a3eb5"/><path d="m367.617188 234.261719h-223.234376v-159.3125l53.796876 57.089843 57.820312-57.089843 54.894531 57.089843 56.722657-57.089843zm0 0" fill="#ffce00"/><path d="m255.59375 234.261719h112.023438v-159.3125l-56.722657 57.089843-54.894531-57.089843zm0 0" fill="#fdba12"/><path d="m426.25 336.050781c0-62.410156-76.222656-113-170.25-113s-170.25 50.589844-170.25 113c0 62.40625 76.222656 113 170.25 113s170.25-50.59375 170.25-113zm0 0" fill="#0cc6b8"/><path d="m256 223.050781c-.136719 0-.269531 0-.40625 0v225.996094h.40625c94.027344 0 170.25-50.589844 170.25-113 0-62.40625-76.222656-112.996094-170.25-112.996094zm0 0" fill="#0ea896"/><path d="m256 223.050781c-10.609375 0-20.988281.648438-31.0625 1.882813-6.726562-32.105469-35.1875-56.214844-69.289062-56.214844-39.105469 0-70.804688 31.699219-70.804688 70.804688 0 18.109374 6.808594 34.625 17.996094 47.144531-5.632813 7.679687-9.996094 15.847656-12.902344 24.382812 17.144531 50.375 84.980469 88 166.0625 88 81.085938 0 148.917969-37.625 166.0625-88-17.144531-50.378906-84.980469-88-166.0625-88zm0 0" fill="#29e2d4"/><path d="m208.175781 239.523438c0 29.007812-23.519531 52.527343-52.527343 52.527343-29.011719 0-52.527344-23.519531-52.527344-52.527343 0-29.011719 23.515625-52.527344 52.527344-52.527344 29.007812 0 52.527343 23.515625 52.527343 52.527344zm0 0" fill="#fff"/><path d="m427.15625 239.523438c0-39.105469-31.699219-70.804688-70.804688-70.804688-34.097656 0-62.5625 24.109375-69.289062 56.214844-10.074219-1.234375-20.453125-1.882813-31.0625-1.882813-.136719 0-.269531 0-.40625 0v175.996094c.136719 0 .269531.003906.40625.003906 81.082031 0 148.917969-37.625 166.0625-88-2.90625-8.535156-7.269531-16.703125-12.898438-24.382812 11.183594-12.523438 17.992188-29.035157 17.992188-47.144531zm0 0" fill="#00becc"/><path d="m408.878906 239.523438c0 29.007812-23.515625 52.527343-52.527344 52.527343-29.007812 0-52.527343-23.519531-52.527343-52.527343 0-29.011719 23.519531-52.527344 52.527343-52.527344 29.011719 0 52.527344 23.515625 52.527344 52.527344zm0 0" fill="#f2f6fc"/><path d="m383.160156 239.523438c0 14.804687-12 26.808593-26.808594 26.808593-14.804687 0-26.808593-12.003906-26.808593-26.808593 0-14.808594 12.003906-26.8125 26.808593-26.8125 14.808594 0 26.808594 12.003906 26.808594 26.8125zm0 0" fill="#555a66"/><path d="m182.457031 239.523438c0 14.804687-12.003906 26.808593-26.808593 26.808593-14.808594 0-26.808594-12.003906-26.808594-26.808593 0-14.808594 12-26.8125 26.808594-26.8125 14.804687 0 26.808593 12.003906 26.808593 26.8125zm0 0" fill="#636978"/></svg>