<svg id="Capa_1" enable-background="new 0 0 512 512" height="512" viewBox="0 0 512 512" width="512" xmlns="http://www.w3.org/2000/svg"><g><g><g><g><g><g><g><path d="m24.738 365.929c-15.861-33.307-24.738-70.581-24.738-109.929 0-141.385 114.615-256 256-256s256 114.615 256 256c0 140.363-112.964 254.341-252.938 255.982z" fill="#ff583e"/></g></g></g></g></g></g><path d="m512 256c0-9.099-.475-18.087-1.401-26.941l-130.953-130.954-22.344 50.782-201.485 21.098-29.843-29.843-30.299 30 46.367 40.23-30.361 11.77 140.553 140.553.079 3.142-173.695-173.695-18.43 18.131.059.059-11.928 11.81 49.54 49.54-2.185 2.459 158.32 158.319 1.957 77.582 3.112 1.939c139.973-1.64 252.937-115.618 252.937-255.981z" fill="#db0404"/><g><g><path d="m154.317 140.142h159.424v30h-159.424z" fill="#ffce00"/></g><g><path d="m95.675 140.142h30.299v30h-30.299z" fill="#ffce00"/></g><g><path d="m95.675 244.142h30.299v30h-30.299z" fill="#ffce00"/></g><g><path d="m111.681 192.142h83.077v30h-83.077z" fill="#ffce00"/></g><g><path d="m48.319 192.142h30.299v30h-30.299z" fill="#ffce00"/></g></g><g><path d="m408.333 218.366c-8.992-27.903-25.646-52.398-47.708-70.91 9.872-20.023 19.021-49.35 19.021-49.35l-82.996 37.261c-42.516 12.089-81.129 35.093-112.003 66.725l-159.909 163.836c41.13 86.374 129.224 146.072 231.262 146.072 1.022 0 2.043-.006 3.063-.018l29.848-242.184c5.213 54.733 65.158 53.43 65.158 53.43l52.14 41.603 43.056-25.965z" fill="#fff"/></g><g><path d="m408.333 218.366c-8.992-27.903-25.646-52.398-47.708-70.91 9.812-19.903 18.906-48.983 19.015-49.333l-320.967 320.967c46.956 56.749 117.917 92.91 197.327 92.91 1.022 0 2.043-.006 3.063-.018l29.848-242.184c5.213 54.733 65.158 53.43 65.158 53.43l52.14 41.603 43.056-25.965z" fill="#e9edf5"/></g><g><path d="m386.339 234.168c-7.463 7.035-19.216 6.687-26.251-.776s-6.687-19.216.776-26.251z" fill="#636978"/></g></g></svg>