<svg id="Layer_1" enable-background="new 0 0 512 512" height="512" viewBox="0 0 512 512" width="512" xmlns="http://www.w3.org/2000/svg"><g><g><g><g><g><g id="XMLID_2127_"><g id="XMLID_2128_"><g id="XMLID_2129_"><g id="XMLID_2130_"><g id="XMLID_2131_"><g id="XMLID_2132_"><g id="XMLID_2133_"><g id="XMLID_2134_"><g id="XMLID_2135_"><g id="XMLID_2136_"><g id="XMLID_2137_"><g id="XMLID_2138_"><g id="XMLID_2139_"><g id="XMLID_2140_"><g id="XMLID_2141_"><circle cx="256" cy="256" fill="#ffdd4d" r="256"/></g></g></g></g></g></g></g></g></g></g></g></g></g></g></g></g></g></g></g><path d="m424.208 153.939-84.642-84.854s-52.429 44.548-56.996 75.951l-72.215-71.914s-61.571 75.132-48.113 93.856l58.764 58.956c-10.144 6.749-18.824 13.634-26.218 22.898l-86.061-85.926-31.661 77.027 59.016 59.463c-30.636 9.626-37.648 74.205-37.648 74.205l137.63 137.63c6.58.508 13.227.769 19.936.769 141.385 0 256-114.615 256-256 0-19.723-2.235-38.923-6.458-57.366l-51.45-51.993s-18.943-.656-29.884 7.298z" fill="#f4b503"/><g><g><path d="m373.016 385.926c.778 0 1.553.011 2.325.032 24.447.669 46.474-12.887 52.812-33.456 10.812-35.086-5.98-68.603-44.093-74.077-80.2-11.518-52.726-70.121-128.06-70.121s-47.861 58.603-128.06 70.121c-38.112 5.474-54.905 38.99-44.093 74.077 6.339 20.568 28.365 34.125 52.812 33.456.772-.021 1.547-.032 2.325-.032 26.808 0 50.247 12.558 62.98 31.287 9.134 13.435 25.404 21.939 43.324 22.482 3.508.106 7.079.161 10.712.161s7.203-.054 10.712-.161c17.92-.543 34.19-9.047 43.324-22.482 12.733-18.728 36.172-31.287 62.98-31.287z" fill="#aa4f11"/></g><g><path d="m428.155 352.5c-6.341 20.57-28.368 34.13-52.818 33.46-.763-.02-1.547-.03-2.321-.03-26.811 0-50.243 12.55-62.976 31.28-9.141 13.44-25.407 21.94-43.331 22.48-3.501.11-7.074.17-10.708.17v-231.55c75.334 0 47.861 58.6 128.06 70.12 38.109 5.47 54.904 38.99 44.094 74.07z" fill="#873700"/></g><g><path d="m62.493 142.577c-25.649 16.445-2.959 85.661 14.573 97.357 14.05 9.373 54.732-7.957 59.762-28.685 3.333-13.733-47.591-85.82-74.335-68.672z" fill="#aa4f11"/><path d="m449.507 142.577c25.649 16.445 2.959 85.661-14.573 97.357-14.05 9.373-54.732-7.957-59.763-28.685-3.332-13.733 47.592-85.82 74.336-68.672z" fill="#873700"/></g><g><path d="m185.6 61.093c-32.917 7.191-36.816 87.16-23.358 105.885 10.786 15.006 59.546 12.622 72.901-6.827 8.849-12.886-15.22-106.556-49.543-99.058z" fill="#aa4f11"/><path d="m326.4 61.093c32.917 7.191 36.816 87.16 23.358 105.885-10.786 15.006-59.546 12.622-72.901-6.827-8.849-12.886 15.22-106.556 49.543-99.058z" fill="#873700"/></g></g></g></svg>