<?xml version="1.0" encoding="iso-8859-1"?>
<!-- Generator: Adobe Illustrator 19.0.0, SVG Export Plug-In . SVG Version: 6.00 Build 0)  -->
<svg version="1.1" id="Capa_1" xmlns="http://www.w3.org/2000/svg" xmlns:xlink="http://www.w3.org/1999/xlink" x="0px" y="0px"
	 viewBox="0 0 512 512" style="enable-background:new 0 0 512 512;" xml:space="preserve">
<circle style="fill:#89CA15;" cx="256" cy="256" r="256"/>
<path style="fill:#639609;" d="M512,256c0-1.912-0.031-3.815-0.072-5.717L343.563,81.917l-34.288,104.647L204.627,81.917
	l-40.246,100.696l79.429,79.429l-28.833,40.338l-91.66-92.299l-38.408,89.701l76.934,76.934L139.04,408.62l102.997,102.997
	C246.661,511.865,251.314,512,256,512C397.385,512,512,397.385,512,256z"/>
<path style="fill:#5D4037;" d="M381.91,373.766c0,80.628-56.372,10.312-125.91,10.312s-125.91,70.317-125.91-10.312
	S186.462,199.554,256,199.554S381.91,293.137,381.91,373.766z"/>
<g>
	<path style="fill:#3E2723;" d="M256,199.554c-0.215,0-0.428,0.012-0.643,0.013v184.52c0.215-0.001,0.428-0.01,0.643-0.01
		c69.538,0,125.91,70.317,125.91-10.312S325.538,199.554,256,199.554z"/>
	<ellipse style="fill:#3E2723;" cx="325.47" cy="134.43" rx="36.905" ry="60.24"/>
</g>
<ellipse style="fill:#5D4037;" cx="186.53" cy="134.43" rx="36.905" ry="60.24"/>
<ellipse style="fill:#3E2723;" cx="406.53" cy="256.48" rx="33.569" ry="54.797"/>
<ellipse style="fill:#5D4037;" cx="105.47" cy="256.48" rx="33.569" ry="54.797"/>
<g>
</g>
<g>
</g>
<g>
</g>
<g>
</g>
<g>
</g>
<g>
</g>
<g>
</g>
<g>
</g>
<g>
</g>
<g>
</g>
<g>
</g>
<g>
</g>
<g>
</g>
<g>
</g>
<g>
</g>
</svg>
