<svg id="Capa_1" enable-background="new 0 0 512 512" height="512" viewBox="0 0 512 512" width="512" xmlns="http://www.w3.org/2000/svg"><g><g><g><g><g><g id="XMLID_1656_"><g id="XMLID_1657_"><g id="XMLID_1658_"><g id="XMLID_1659_"><g id="XMLID_1660_"><g id="XMLID_1661_"><g id="XMLID_1662_"><g id="XMLID_1663_"><g id="XMLID_1679_"><g id="XMLID_1680_"><g id="XMLID_1681_"><g id="XMLID_1715_"><g id="XMLID_2078_"><g id="XMLID_2079_"><g id="XMLID_2080_"><circle cx="256" cy="256" fill="#d3effd" r="256"/></g></g></g></g></g></g></g></g></g></g></g></g></g></g></g></g></g></g></g><path d="m512 256c0-5.538-.176-11.034-.522-16.484l-161.903-161.904-312.69 227.297 123.123 123.122-14.309 27.434 49.196 49.196c19.581 4.796 40.046 7.339 61.105 7.339 141.385 0 256-114.615 256-256z" fill="#91dafa"/><g><path d="m475.115 304.909-98.613-114.213v-37.157c0-66.552-53.951-120.502-120.502-120.502-19.761 0-38.41 4.757-54.867 13.187-45.677 23.4-70.665 73.993-63.006 124.74l2.215 14.679-.379-.12-103.078 119.386s68.655 24.906 105.526-14.201l-6.914 46.127c0 29.184 9.71 57.538 27.6 80.595 6.679 8.608 17.911 12.308 28.398 9.353l64.505-18.17 64.504 18.171c10.487 2.954 21.719-.745 28.398-9.353 17.89-23.057 27.6-51.412 27.6-80.596v-39.795c37.902 29.893 98.613 7.869 98.613 7.869z" fill="#494949"/><g><path d="m376.502 190.696v-37.156c0-66.552-53.951-120.502-120.502-120.502v375.576l64.504 18.171c10.487 2.954 21.719-.745 28.398-9.353 17.89-23.058 27.6-51.412 27.6-80.596v-39.796c37.902 29.893 98.613 7.869 98.613 7.869z" fill="#2d2d2d"/></g><path d="m338.249 186.459c.505-.983.982-1.983 1.429-2.999l.004-.009c3.014-6.851 4.687-14.426 4.687-22.39 0-30.74-24.919-55.659-55.659-55.659-12.224 0-23.528 3.941-32.71 10.622-9.182-6.681-20.486-10.622-32.71-10.622-30.74 0-55.659 24.919-55.659 55.659 0 7.965 1.673 15.539 4.687 22.39l.004.009c.447 1.016.924 2.016 1.429 2.999l6.125 12.857c9.914 20.811 12.702 44.306 7.934 66.859l-9.452 44.711c-3.88 18.351-2.772 37.407 3.209 55.185l19.516 58.012c35.435 13.127 74.401 13.127 109.836 0l19.516-58.012c5.981-17.778 7.089-36.834 3.209-55.185l-9.452-44.711c-4.768-22.553-1.98-46.048 7.934-66.859z" fill="#fff"/><g><g><path d="m344.369 161.061c0-30.74-24.919-55.659-55.659-55.659-12.224 0-23.528 3.941-32.71 10.622v317.906c18.6 0 37.2-3.282 54.918-9.845l19.516-58.013c5.981-17.778 7.089-36.834 3.209-55.185l-9.452-44.711c-4.768-22.553-1.98-46.048 7.933-66.859l6.125-12.857c.505-.983.982-1.983 1.429-2.999l.004-.008c3.014-6.853 4.687-14.427 4.687-22.392z" fill="#e0e0e0"/></g></g><g><circle cx="225.31" cy="163.492" fill="#494949" r="16.993"/><circle cx="286.69" cy="163.492" fill="#2d2d2d" r="16.993"/></g><path d="m272.305 204.458h-32.61l-22.787 14.222 39.092 31.954 39.092-31.954z" fill="#e9a761"/><g><g><g><path d="m272.305 204.458h-16.305v46.176l39.092-31.954z" fill="#e38523"/></g></g></g><g><g><path d="m167.518 448.051 20.359 16.287 20.359-16.287 21.819 7.415v.003c2.336-3.803 3.629-7.987 3.629-12.38 0-17.499-4.581-31.684-45.807-31.684-41.227 0-45.807 14.185-45.807 31.684 0 4.393 1.293 8.576 3.629 12.38v-.002z" fill="#e9a761"/></g><g><g><g><path d="m303.764 448.051 20.359 16.287 20.359-16.287 21.819 7.415v.003c2.336-3.803 3.629-7.987 3.629-12.38 0-17.499-4.581-31.684-45.807-31.684-41.227 0-45.807 14.185-45.807 31.684 0 4.393 1.293 8.576 3.629 12.38v-.002z" fill="#e38523"/></g></g></g></g></g></g></svg>