<svg id="Capa_1" enable-background="new 0 0 512 512" height="512" viewBox="0 0 512 512" width="512" xmlns="http://www.w3.org/2000/svg"><g><circle cx="256" cy="256" fill="#7883ee" r="256"/><path d="m335.422 206.068 13.68 13.68-89.147 89.147-56.226-56.226-132.391 132.39 118.212 118.213c21.193 5.681 43.464 8.728 66.45 8.728 141.385 0 256-114.615 256-256 0-16.461-1.573-32.553-4.541-48.15l-86.909-86.909z" fill="#4652ca"/><path d="m373.359 360.39h51.303v-19.381c0-23.537-19.08-42.617-42.617-42.617h-51.303v19.381c-.001 23.537 19.08 42.617 42.617 42.617z" fill="#cdd2e1"/><path d="m222.887 223.008c-61.027 0-110.499 49.472-110.499 110.5v20.551h143.612l7.588-65.525-7.588-65.526z" fill="#fff"/><path d="m385.41 293.422v-103.526c20.191-5.086 35.14-23.36 35.14-45.13v-23.826h-63.567c-25.704 0-46.542 20.838-46.542 46.542v55.525h-54.441v131.051h68.773c33.489.001 60.637-27.147 60.637-60.636z" fill="#e9edf5"/><path d="m122.64 385.059h-51.302v-19.381c0-23.537 19.08-42.617 42.617-42.617h51.303v19.381c0 23.536-19.081 42.617-42.618 42.617z" fill="#e9edf5"/><circle cx="360.549" cy="145.545" fill="#333940" r="10.921"/><path d="m228.532 369.602v15.457h27.468l7.588-26.941-7.588-30.962c-16.189 7.284-27.468 23.541-27.468 42.446z" fill="#e9edf5"/><path d="m322.296 342.166h.008v-.102c.088-1.172.148-2.352.148-3.547v-15.457h-.148v-30.853h-49.96v30.939c-5.799.336-11.307 1.743-16.345 4.01v57.902h19.91c24.476.001 44.524-18.895 46.387-42.892z" fill="#cdd2e1"/></g></svg>