<svg height="512pt" viewBox="0 0 512 512" width="512pt" xmlns="http://www.w3.org/2000/svg"><path d="m512 256c0 141.386719-114.613281 256-256 256s-256-114.613281-256-256 114.613281-256 256-256 256 114.613281 256 256zm0 0" fill="#0053bf"/><path d="m509.613281 290.957031-195.9375-195.9375-26.582031 240.816407 123.90625 123.902343c52.617188-40.09375 89.234375-100.097656 98.613281-168.78125zm0 0" fill="#27488f"/><path d="m256 208.140625c-111.84375 0-202.507812 88.644531-202.507812 197.992187 0 2.222657.050781 4.429688.125 6.636719 46.832031 60.367188 120.066406 99.230469 202.382812 99.230469s155.550781-38.863281 202.382812-99.230469c.074219-2.207031.125-4.414062.125-6.636719 0-109.347656-90.664062-197.992187-202.507812-197.992187zm0 0" fill="#ffce00"/><path d="m256 208.140625c-.171875 0-.34375.007813-.515625.007813v303.847656c.171875 0 .34375.003906.515625.003906 82.316406 0 155.550781-38.863281 202.382812-99.230469.074219-2.207031.125-4.414062.125-6.636719 0-109.347656-90.664062-197.992187-202.507812-197.992187zm0 0" fill="#ffa300"/><path d="m256 250c-88.195312 0-159.691406 69.902344-159.691406 156.132812 0 20.796876 4.167968 40.644532 11.71875 58.792969 41.785156 29.644531 92.839844 47.074219 147.972656 47.074219s106.1875-17.429688 147.972656-47.074219c7.550782-18.148437 11.71875-37.996093 11.71875-58.792969 0-86.230468-71.496094-156.132812-159.691406-156.132812zm0 0" fill="#ffdf57"/><path d="m256 250c-.171875 0-.34375.007812-.515625.007812v261.988282c.171875 0 .34375.003906.515625.003906 55.132812 0 106.1875-17.429688 147.972656-47.074219 7.550782-18.148437 11.71875-37.996093 11.71875-58.792969 0-86.230468-71.496094-156.132812-159.691406-156.132812zm0 0" fill="#ffce00"/><path d="m256 349.972656c-39.921875 0-72.289062-32.367187-72.289062-72.289062v-139.085938c0-39.921875 32.363281-72.285156 72.289062-72.285156 39.921875 0 72.285156 32.363281 72.285156 72.285156v139.085938c.003906 39.921875-32.363281 72.289062-72.285156 72.289062zm0 0" fill="#09ce67"/><path d="m256 66.3125c-.171875 0-.34375.011719-.515625.011719v283.632812c.171875.003907.34375.015625.515625.015625 39.921875 0 72.289062-32.367187 72.289062-72.289062v-139.085938c0-39.921875-32.367187-72.285156-72.289062-72.285156zm0 0" fill="#1aad5c"/><path d="m475.191406 327.71875c-9.503906-21.398438-34.554687-31.042969-55.957031-21.539062-21.398437 9.503906-31.042969 34.554687-21.539063 55.957031l33.109376 74.554687c.65625 1.476563 1.394531 2.890625 2.191406 4.253906 23.757812-22.742187 43.136718-50.015624 56.757812-80.4375zm0 0" fill="#1aad5c"/><path d="m36.808594 327.71875c9.503906-21.398438 34.554687-31.042969 55.957031-21.539062 21.398437 9.503906 31.042969 34.554687 21.539063 55.957031l-33.109376 74.554687c-.65625 1.476563-1.394531 2.890625-2.191406 4.253906-23.757812-22.742187-43.136718-50.015624-56.757812-80.4375zm0 0" fill="#09ce67"/><path d="m220.664062 117.078125c0 4.925781-3.992187 8.917969-8.917968 8.917969-4.925782 0-8.917969-3.992188-8.917969-8.917969s3.992187-8.917969 8.917969-8.917969c4.925781 0 8.917968 3.992188 8.917968 8.917969zm0 0" fill="#555a66"/><path d="m309.171875 117.078125c0 4.925781-3.992187 8.917969-8.917969 8.917969-4.925781 0-8.917968-3.992188-8.917968-8.917969s3.992187-8.917969 8.917968-8.917969c4.925782 0 8.917969 3.992188 8.917969 8.917969zm0 0" fill="#333940"/><path d="m228.734375 146h54.53125v14h-54.53125zm0 0" fill="#555a66"/><path d="m255.484375 146h27.78125v14h-27.78125zm0 0" fill="#333940"/></svg>