<svg id="Capa_1" enable-background="new 0 0 512 512" height="512" viewBox="0 0 512 512" width="512" xmlns="http://www.w3.org/2000/svg"><g><g><g><g><g><g id="XMLID_1149_"><g id="XMLID_1150_"><g id="XMLID_1151_"><g id="XMLID_1152_"><g id="XMLID_1153_"><g id="XMLID_1154_"><g id="XMLID_1155_"><g id="XMLID_1156_"><g id="XMLID_1815_"><g id="XMLID_1816_"><g id="XMLID_1817_"><g id="XMLID_1818_"><g id="XMLID_1819_"><g id="XMLID_1820_"><g><path d="m512 256c0 59.61-20.38 114.47-54.55 157.98-46.87 59.68-119.68 66.927-201.45 66.927s-154.58-7.247-201.45-66.927c-34.17-43.51-54.55-98.37-54.55-157.98 0-141.38 114.62-256 256-256s256 114.62 256 256z" fill="#543b3b"/></g></g></g></g></g></g></g></g></g></g></g></g></g></g></g></g></g></g></g><path d="m457.45 413.98c34.17-43.51 54.55-98.37 54.55-157.98 0-1.238-.009-2.473-.027-3.707l-171.032-171.032-77.163 205.975 126.477 175.925c25.791-9.991 48.546-25.435 67.195-49.181z" fill="#442727"/><path d="m457.45 413.98c-46.87 59.68-119.68 98.02-201.45 98.02s-154.58-38.34-201.45-98.02l96.31-293.88c7.19-23.55 21.2-43.84 39.55-58.24 18.34-14.4 41.03-22.91 65.59-22.91 49.11 0 90.73 34.03 105.13 81.12z" fill="#e9a761"/><g><g><g><path d="m361.13 120.07c-14.4-47.09-56.02-81.12-105.13-81.12v473.05c81.77 0 154.58-38.34 201.45-98.02z" fill="#e38523"/></g></g></g><g><path d="m163.777 281.864s-11.849 105.002 48.79 145.925v-140.869z" fill="#fff"/><path d="m348.223 281.864s11.849 105.002-48.79 145.925v-140.869z" fill="#e0e0e0"/></g><g><ellipse cx="213.273" cy="125.949" fill="#494949" rx="19.177" ry="19.177" transform="matrix(.924 -.383 .383 .924 -31.964 91.203)"/><ellipse cx="298.727" cy="125.949" fill="#2d2d2d" rx="19.177" ry="19.177" transform="matrix(.924 -.383 .383 .924 -25.459 123.905)"/></g><path d="m375.597 249.655c0 32.503-26.349 58.852-58.851 58.852h-9.004c-2.535 0-5.802-.595-9.277-1.488-13.109-3.367-25.03-10.302-34.688-19.784l-7.777-7.634-13.597 11.647c-7.746 6.635-16.694 11.757-26.4 14.891-4.212 1.36-8.446 2.368-11.744 2.368h-9.004c-32.503 0-58.851-26.349-58.851-58.852 0-33.484 27.144-60.629 60.629-60.629h117.937c33.483.001 60.627 27.145 60.627 60.629z" fill="#e38523"/><g><path d="m314.969 189.027h-58.969v90.574l7.777 7.635c9.658 9.482 21.579 16.416 34.688 19.784 3.475.893 6.742 1.488 9.277 1.488h9.004c32.503 0 58.851-26.349 58.851-58.851 0-33.486-27.144-60.63-60.628-60.63z" fill="#c95929"/></g><g><path d="m256 179.829c-12.896 0-44.742 5.964-28.034 30.343 12.634 18.434 28.034 19.212 28.034 19.212s15.4-.778 28.034-19.211c16.708-24.38-15.138-30.344-28.034-30.344z" fill="#494949"/><g><path d="m256 179.829v49.554s15.4-.778 28.034-19.211c16.708-24.379-15.138-30.343-28.034-30.343z" fill="#2d2d2d"/></g></g></g></svg>