<svg id="Capa_1" enable-background="new 0 0 512 512" height="512" viewBox="0 0 512 512" width="512" xmlns="http://www.w3.org/2000/svg"><circle cx="256" cy="256" fill="#f2bb88" r="256"/><path d="m512 256c0-4.973-.157-9.909-.437-14.812l-92.647-92.647-350.324 186.819 176.388 176.389c3.655.155 7.326.251 11.02.251 141.385 0 256-114.615 256-256z" fill="#d6995c"/><circle cx="370.759" cy="194.518" fill="#23272b" r="66.581"/><circle cx="370.759" cy="194.518" fill="#555a66" r="35.497"/><circle cx="141.241" cy="194.518" fill="#414952" r="66.581"/><circle cx="141.241" cy="194.518" fill="#707789" r="35.497"/><path d="m104.508 332.438c62.249 0 117.4 25.694 151.492 65.23 34.092-39.536 89.243-65.23 151.492-65.23 12.285 0 24.29 1.012 35.916 2.922.021-.973.044-1.945.044-2.922 0-87.642-83.925-194.033-187.452-194.033s-187.452 106.391-187.452 194.033c0 .977.023 1.949.044 2.922 11.626-1.91 23.63-2.922 35.916-2.922z" fill="#dce1eb"/><path d="m256 138.406v259.262c34.092-39.536 89.243-65.229 151.492-65.229 12.285 0 24.29 1.012 35.916 2.922.021-.973.044-1.945.044-2.922 0-87.643-83.925-194.033-187.452-194.033z" fill="#bec3d2"/><path d="m346.743 161.536c-26.889-17.882-57.821-28.891-90.743-28.891s-63.854 11.009-90.743 28.891c23.387 24.946 67.536 88.613 69.657 215.16 7.695 6.452 14.755 13.467 21.086 20.972 6.331-7.505 13.392-14.52 21.086-20.972 2.121-126.547 46.27-190.213 69.657-215.16z" fill="#414952"/><path d="m256 132.646v265.022c6.331-7.505 13.392-14.52 21.086-20.972 2.12-126.547 46.269-190.214 69.656-215.16-26.888-17.881-57.82-28.89-90.742-28.89z" fill="#23272b"/><path d="m303.429 354.316c0 20.053-47.429 46.382-47.429 46.382s-47.429-26.329-47.429-46.382 21.234-20.774 47.429-20.774 47.429.721 47.429 20.774z" fill="#636978"/><path d="m256 333.542v67.156s47.429-26.33 47.429-46.382-21.235-20.774-47.429-20.774z" fill="#414952"/><circle cx="350.713" cy="291.54" fill="#23272b" r="13.935"/><circle cx="161.287" cy="291.54" fill="#414952" r="13.935"/></svg>