<svg id="Capa_1" enable-background="new 0 0 512 512" height="512" viewBox="0 0 512 512" width="512" xmlns="http://www.w3.org/2000/svg"><g><circle cx="256" cy="256" fill="#fcc515" r="256"/><path d="m343.554 287.759-126.276-126.276-21.355 21.355-82.444-82.444-14.634 14.634 26.552 26.552-24.908 24.908 34.262 34.262-20.294 20.294 4.077 4.077-16.845 16.845 17.553 17.553 36.22 36.219-31.875 31.875 104.553 104.553-13.888 3.953 73.877 73.877c115.128-14.416 206.478-105.281 221.645-220.175l-84.141-84.141z" fill="#fa0"/><path d="m211.331 255.552c-30.45 15.287-49.51 23.536-67.037 16.219-1.688-.705-12.575-5.43-19.083-17.009-7.705-13.707-7.501-33.866 1.243-39.216 7.445-4.555 14.566 5.611 32.978 5.947 18.411.336 32.045-9.451 34.6-11.353 22.07-16.434 23.152-44.499 23.247-48.656-9.451-1.467-29.136-3.178-51.359 5.406-15.397 5.948-26.122 14.562-32.437 20.544 2.064-8.57 4.216-22.369 1.622-38.925-3.776-24.102-15.505-40.613-21.625-48.116-4.111 2.576-23.707 15.451-28.653 40.006-4.853 24.096 7.582 43.653 9.731 47.034 5.139 8.083 9.347 9.642 13.806 15.759 0 0 2.433 3.338 3.932 6.866 5.447 12.82-13.883 24.499-18.819 44.952-7.267 30.112 20.782 62.194 25.95 68.119 12.62 14.469 27.916 23.603 45.025 29.517l102.394 1.136 8.862-69.606-8.862-63.427c-15.666 10.436-24.943 19.454-55.515 34.803z" fill="#7883ee"/><path d="m449.978 261.536c-1.014-12.088-4.495-22.122-5.646-25.261-2.567-7.002-7.976-21.237-21.699-33.412-15.009-13.315-31.454-16.795-39.384-18.133-36.134-6.096-67.658 9.467-93.528 22.706-9.691 4.959-16.769 9.244-22.877 13.313v133.033l65.606.728z" fill="#4652ca"/><path d="m164.45 352.647c16.961 5.538 56.306 17.726 102.394 19.497l7.274-14.637-7.274-14.637c-40.349 8.163-75.686 9.751-102.394 9.777z" fill="#fff"/><path d="m370.92 353.451c23.196-10.72 70.001-32.351 78.284-73.639 1.496-7.457 1.122-13.865.773-18.276-26.192 19.038-60.923 40.499-104.822 58.033-27.417 10.951-53.789 18.339-78.312 23.3v29.274c33.144 1.274 69.772-2.837 104.077-18.692z" fill="#e9edf5"/><path d="m249.862 376.275c-10.469 9.222-3.597 21.565-12.471 38.118-3.423 6.385-9.858 14.644-23.141 21.728 18.556 5.603 37.2 4.195 52.594-2.403l7.274-33.953-7.274-31.422c-6.025 3.387-11.465 3.072-16.982 7.932z" fill="#7883ee"/><path d="m296.92 406.863c13.609-25.715 1.49-53.239-.225-56.972h-15.678c-1.242 3.711-3.55 8.951-8.097 13.678-2.102 2.186-4.12 3.674-6.076 4.773v65.375c13.039-5.588 23.748-14.896 30.076-26.854z" fill="#4652ca"/><circle cx="404.882" cy="246" fill="#333940" r="10"/></g></svg>