<svg height="512pt" viewBox="-18 0 512 512.00107" width="512pt" xmlns="http://www.w3.org/2000/svg" xmlns:xlink="http://www.w3.org/1999/xlink"><linearGradient id="a" gradientUnits="userSpaceOnUse" x1="152.5866495748" x2="524.893348588" y1="113.6131306584" y2="810.9493823964"><stop offset="0" stop-color="#c2e0ff"/><stop offset=".2148" stop-color="#96dafd"/><stop offset=".7579" stop-color="#2bccf8"/><stop offset="1" stop-color="#00c6f6"/></linearGradient><linearGradient id="b"><stop offset="0" stop-color="#0d94fe" stop-opacity="0"/><stop offset=".5142" stop-color="#0681cd" stop-opacity=".513725"/><stop offset="1" stop-color="#0070a2"/></linearGradient><linearGradient id="c" gradientUnits="userSpaceOnUse" x1="321.3276442628" x2="95.2095124946" xlink:href="#b" y1="399.8598950158" y2="-18.6993280844"/><linearGradient id="d"><stop offset="0" stop-color="#ecf7ff"/><stop offset="1" stop-color="#c2e0ff"/></linearGradient><linearGradient id="e" gradientUnits="userSpaceOnUse" x1="30.8565338914" x2="41.9769315714" xlink:href="#d" y1="299.9112059182" y2="313.0909848256"/><linearGradient id="f" gradientUnits="userSpaceOnUse" x1="82.7598860522" x2="93.8802837322" xlink:href="#d" y1="231.9625651554" y2="245.1423440628"/><linearGradient id="g" gradientUnits="userSpaceOnUse" x1="65.790038755" x2="76.9103360704" xlink:href="#d" y1="386.3356648012" y2="399.515343344"/><linearGradient id="h" gradientUnits="userSpaceOnUse" x1="434.2247718648" x2="445.3452699094" xlink:href="#d" y1="207.9184186626" y2="221.0980972054"/><linearGradient id="i" gradientUnits="userSpaceOnUse" x1="372.1291938448" x2="383.2495915248" xlink:href="#d" y1="111.6799077332" y2="124.8596866406"/><linearGradient id="j" gradientUnits="userSpaceOnUse" x1="297.5426391672" x2="308.6630368472" xlink:href="#d" y1="75.7537969756" y2="88.933575883"/><linearGradient id="k" gradientUnits="userSpaceOnUse" x1="30.8565338914" x2="41.9769315714" xlink:href="#d" y1="211.7960049836" y2="224.9756835264"/><linearGradient id="l" gradientUnits="userSpaceOnUse" x1="379.3247334772" x2="390.4450307926" xlink:href="#d" y1="246.4035256264" y2="259.5832041692"/><linearGradient id="m" gradientUnits="userSpaceOnUse" x1="99.7297333494" x2="110.8501310294" xlink:href="#d" y1="328.0388868912" y2="341.2186657986"/><linearGradient id="n" gradientUnits="userSpaceOnUse" x1="362.2960725244" x2="373.4163698398" xlink:href="#d" y1="325.3277379514" y2="338.5074164942"/><linearGradient id="o" gradientUnits="userSpaceOnUse" x1="403.2199389036" x2="414.3403365836" xlink:href="#d" y1="371.0848623728" y2="384.2646412802"/><linearGradient id="p" gradientUnits="userSpaceOnUse" x1="233.8899043782" x2="245.0103020582" xlink:href="#d" y1="56.2392052454" y2="69.4188837882"/><linearGradient id="q" gradientUnits="userSpaceOnUse" x1="170.1211481116" x2="181.2415457916" xlink:href="#d" y1="72.1223046538" y2="85.3019831966"/><linearGradient id="r" gradientUnits="userSpaceOnUse" x1="425.8845739694" x2="437.0049716494" xlink:href="#d" y1="288.3074523246" y2="301.4871308674"/><linearGradient id="s" gradientUnits="userSpaceOnUse" x1="146.4148288624" x2="42.7560619612" xlink:href="#b" y1="124.2269882022" y2="20.568221301"/><linearGradient id="t"><stop offset="0" stop-color="#ffd459"/><stop offset=".2296" stop-color="#ffd355"/><stop offset=".4362" stop-color="#ffcf4a"/><stop offset=".634" stop-color="#ffc838"/><stop offset=".825" stop-color="#ffbf1f"/><stop offset="1" stop-color="#ffb400"/></linearGradient><linearGradient id="u" gradientTransform="matrix(1.003646 .00070198 -.00070198 1.003646 -17.676776 -.178546)" gradientUnits="userSpaceOnUse" x1="255.0674" x2="255.0674" xlink:href="#t" y1="336.3104" y2="494.2315"/><linearGradient id="v"><stop offset="0" stop-color="#f43b36" stop-opacity="0"/><stop offset=".436" stop-color="#d02021" stop-opacity=".435294"/><stop offset="1" stop-color="#a60108"/></linearGradient><linearGradient id="w" gradientTransform="matrix(1.003646 .00070198 -.00070198 1.003646 -17.676776 -.178546)" gradientUnits="userSpaceOnUse" x1="272.6359" x2="234.1652" xlink:href="#v" y1="501.9339" y2="301.5656"/><linearGradient id="x"><stop offset="0" stop-color="#ff706a"/><stop offset=".8111" stop-color="#f64640"/><stop offset="1" stop-color="#f43b36"/></linearGradient><linearGradient id="y" gradientTransform="matrix(1.003646 .00070198 -.00070198 1.003646 -17.676776 -.178546)" gradientUnits="userSpaceOnUse" x1="255.0674" x2="255.0674" xlink:href="#x" y1="370.2496" y2="457.4963"/><linearGradient id="z" gradientTransform="matrix(1.003646 .00070198 -.00070198 1.003646 -17.676776 -.178546)" gradientUnits="userSpaceOnUse" x1="384.1523" x2="176.375" xlink:href="#v" y1="489.0719" y2="281.2945"/><linearGradient id="A"><stop offset="0" stop-color="#463351"/><stop offset=".2798" stop-color="#3d2e4b"/><stop offset=".739" stop-color="#24213b"/><stop offset="1" stop-color="#131830"/></linearGradient><linearGradient id="B" gradientTransform="matrix(1.003646 .00070198 -.00070198 1.003646 -17.676776 -.178546)" gradientUnits="userSpaceOnUse" x1="99.4502" x2="88.8042" xlink:href="#A" y1="31.0519" y2="85.8024"/><linearGradient id="C" gradientTransform="matrix(1.003646 .00070198 -.00070198 1.003646 -17.676776 -.178546)" gradientUnits="userSpaceOnUse" x1="137.2185" x2="126.5725" xlink:href="#A" y1="38.3957" y2="93.1463"/><linearGradient id="D" gradientTransform="matrix(1.003646 .00070198 -.00070198 1.003646 -17.676776 -.178546)" gradientUnits="userSpaceOnUse" x1="125.2555" x2="108.5262" xlink:href="#A" y1="57.3206" y2="115.8733"/><linearGradient id="E" gradientTransform="matrix(-1.003646 -.00070198 -.00070198 1.003646 -1913.939543 -1.504865)" gradientUnits="userSpaceOnUse" x1="-2300.0588" x2="-2310.7046" xlink:href="#A" y1="31.0519" y2="85.8024"/><linearGradient id="F" gradientTransform="matrix(-1.003646 -.00070198 -.00070198 1.003646 -1913.939543 -1.504865)" gradientUnits="userSpaceOnUse" x1="-2262.2905" x2="-2272.9363" xlink:href="#A" y1="38.3957" y2="93.1463"/><linearGradient id="G" gradientTransform="matrix(-1.003646 -.00070198 -.00070198 1.003646 -1913.939543 -1.504865)" gradientUnits="userSpaceOnUse" x1="-2274.2534" x2="-2290.9827" xlink:href="#A" y1="57.3206" y2="115.8733"/><linearGradient id="H" gradientTransform="matrix(1.003646 .00070198 -.00070198 1.003646 -17.676776 -.178546)" gradientUnits="userSpaceOnUse" x1="133.3387" x2="133.3387" xlink:href="#t" y1="118.5505" y2="179.6683"/><linearGradient id="I"><stop offset="0" stop-color="#e4003d" stop-opacity="0"/><stop offset=".2412" stop-color="#da0a40" stop-opacity=".243137"/><stop offset=".6509" stop-color="#c1254a" stop-opacity=".65098"/><stop offset="1" stop-color="#a64153"/></linearGradient><linearGradient id="J" gradientTransform="matrix(1.003646 .00070198 -.00070198 1.003646 -17.676776 -.178546)" gradientUnits="userSpaceOnUse" x1="142.7241" x2="142.7241" xlink:href="#I" y1="187.4564" y2="131.9286"/><linearGradient id="K" gradientTransform="matrix(1.003646 .00070198 -.00070198 1.003646 -17.676776 -.178546)" gradientUnits="userSpaceOnUse" x1="376.7982" x2="376.7982" xlink:href="#t" y1="118.5505" y2="179.6683"/><linearGradient id="L" gradientTransform="matrix(1.003646 .00070198 -.00070198 1.003646 -17.676776 -.178546)" gradientUnits="userSpaceOnUse" x1="367.4047" x2="367.4047" xlink:href="#I" y1="187.4564" y2="131.9286"/><linearGradient id="M" gradientTransform="matrix(1.003646 .00070198 -.00070198 1.003646 -17.676776 -.178546)" gradientUnits="userSpaceOnUse" x1="153.4093" x2="355.3607" xlink:href="#t" y1="161.9956" y2="356.771"/><linearGradient id="N" gradientTransform="matrix(1.003646 .00070198 -.00070198 1.003646 -17.676776 -.178546)" gradientUnits="userSpaceOnUse" x1="206.3841" x2="301.5976" xlink:href="#I" y1="311.3624" y2="406.576"/><linearGradient id="O" gradientTransform="matrix(1.003646 .00070198 -.00070198 1.003646 -17.676776 -.178546)" gradientUnits="userSpaceOnUse" x1="285.575" x2="252.1477" xlink:href="#I" y1="365.5692" y2="332.142"/><linearGradient id="P" gradientTransform="matrix(1.003646 .00070198 -.00070198 1.003646 -17.676776 -.178546)" gradientUnits="userSpaceOnUse" x1="229.0881" x2="279.672" xlink:href="#x" y1="309.0912" y2="359.6751"/><linearGradient id="Q" gradientTransform="matrix(1.003646 .00070198 -.00070198 1.003646 -17.676776 -.178546)" gradientUnits="userSpaceOnUse" x1="170.4202" x2="195.7189" xlink:href="#A" y1="223.4107" y2="248.7094"/><linearGradient id="R" gradientTransform="matrix(1.003646 .00070198 -.00070198 1.003646 -17.676776 -.178546)" gradientUnits="userSpaceOnUse" x1="313.9748" x2="339.2735" xlink:href="#A" y1="223.4107" y2="248.7094"/><path d="m476.28125 273.859375c0 131.519531-106.617188 238.140625-238.140625 238.140625-131.519531 0-238.140625-106.621094-238.140625-238.140625 0-131.523437 106.621094-238.140625 238.140625-238.140625 131.523437 0 238.140625 106.617188 238.140625 238.140625zm0 0" fill="url(#a)"/><path d="m398.292969 97.605469c-14.480469-13.167969-30.601563-24.582031-48.015625-33.882813l-.007813 17.402344c-8.019531 3.523438-15.394531 8.519531-21.78125 14.894531l-23.925781 23.894531c-11.894531-6.59375-25.179688-11.070312-39.371094-12.886718-17.886718-2.285156-36.003906-2.296875-53.886718-.039063-22.160157 2.800781-42.144532 12.09375-58.042969 25.835938l-50.761719-.042969c-21.660156-.007812-41.410156 12.375-50.816406 31.886719l-2.546875 5.28125c-3.832031 7.9375-1.953125 16.632812 3.308593 22.394531.363282.398438.75.777344 1.148438 1.144531l70.308594 70.308594c1.277344 3.097656 2.464844 6.226563 3.539062 9.40625 4.003906 11.652344 6.703125 23.777344 7.996094 36.179687l9.164062 35.007813c-8.851562 5.359375-15.957031 13.679687-19.703124 24.066406l-9.761719 27.109375c-4.207031 11.703125-2.570313 24.179688 3.53125 34.113282l-14.734375 40.917968c.351562.242188.703125.492188 1.0625.722656 1.75 1.1875 3.503906 2.339844 5.28125 3.472657.542968.34375 1.082031.695312 1.636718 1.035156 1.796876 1.125 3.601563 2.230469 5.4375 3.3125.753907.429687 1.496094.875 2.25 1.304687 1.765626 1.015626 3.542969 2.015626 5.339844 2.972657.652344.359375 1.3125.710937 1.964844 1.0625.933594.5 1.878906.984375 2.820312 1.464843.722657.371094 1.445313.734376 2.179688 1.105469.230469.117188.449219.230469.683594.328125.761718.382813 1.535156.765625 2.308594 1.136719 1.632812.792969 3.28125 1.554687 4.9375 2.308594.179687.089843.359374.167969.550781.25.804687.359375 1.59375.710937 2.398437 1.0625 1.765625.773437 3.554688 1.527343 5.339844 2.257812 1.796875.734375 3.59375 1.445313 5.410156 2.140625.902344.339844 1.816406.679688 2.730469 1.011719.910156.332031 1.824219.664063 2.738281.984375 1.765625.621094 3.53125 1.222656 5.308594 1.804688.152344.050781.300781.101562.453125.140624 1.777344.582032 3.574219 1.136719 5.367187 1.667969 2.8125.84375 5.640626 1.625 8.492188 2.359375 1.90625.492188 3.8125.953125 5.742188 1.394532.902343.210937 1.804687.410156 2.707031.613281 1.085937.238281 2.167969.46875 3.265625.691406 1.875.378906 3.761718.742187 5.648437 1.074219.824219.148437 1.65625.289062 2.488281.429687 1.816407.3125 3.644532.59375 5.480469.855469.574219.089844 1.132813.160156 1.707031.238281.710938.101563 1.425782.203125 2.148438.28125.992188.132813 1.984375.25 2.980469.363281 1.003906.121094 1.996093.21875 3 .320313 1.003906.109375 2.007812.199219 3.011719.289063.613281.050781 1.234374.113281 1.855468.152343.28125.03125.5625.050781.832032.070313.523437.039062 1.035156.082031 1.546874.109375 1.605469.121093 3.222657.222656 4.847657.300781.933593.050781 1.867187.089844 2.800781.132812 2.117188.078126 4.234375.128907 6.371094.160157.964844.007812 1.9375.019531 2.902344.019531 1.09375 0 2.1875-.011719 3.28125-.019531 1.015624-.011719 2.027343-.03125 3.042968-.0625.449219-.007813.902344-.019531 1.355469-.039063 1.351563-.039062 2.699219-.089844 4.042969-.160156.761718-.03125 1.535156-.070312 2.296875-.121094.765625-.039062 1.527343-.089844 2.289062-.140625 1.527344-.097656 3.050781-.21875 4.566407-.351562.460937-.039063.933593-.078125 1.394531-.121094.753906-.066406 1.507812-.136719 2.25-.21875 2.570312-.261719 5.117187-.5625 7.65625-.902344.753906-.101562 1.496093-.203125 2.25-.3125.742187-.109375 1.484375-.21875 2.238281-.332031.742188-.109375 1.484375-.230469 2.238281-.351562.730469-.117188 1.472657-.25 2.207031-.378907 1.585938-.273437 3.160157-.5625 4.738282-.863281 1.363281-.261719 2.71875-.542969 4.074218-.832031.632813-.132813 1.253907-.273438 1.886719-.414063 2.378907-.519531 4.738281-1.082031 7.085938-1.675781 1.34375-.339844 2.6875-.703125 4.023437-1.0625 1.4375-.382813 2.851563-.785156 4.265625-1.207031.714844-.199219 1.414063-.417969 2.128907-.628906.710937-.210938 1.414062-.433594 2.117187-.652344 2.085937-.644532 4.15625-1.328125 6.210937-2.039063.0625-.019531.121094-.039062.183594-.070312 2.046875-.691407 4.09375-1.425781 6.109375-2.199219 2.058594-.761719 4.105469-1.566406 6.132813-2.398438.671875-.28125 1.355468-.5625 2.027344-.84375.671874-.28125 1.347656-.558593 2.019531-.851562.660156-.289062 1.332031-.582031 2.007812-.875 2.003907-.871094 3.984375-1.785156 5.960938-2.726562.652343-.3125 1.304687-.625 1.964843-.945313 1.304688-.621094 2.609376-1.273437 3.90625-1.9375 3.882813-1.964844 7.707032-4.042969 11.460938-6.230469 71.089844-41.191406 118.910156-118.101562 118.910156-206.179687 0-69.855469-30.078125-132.683594-77.992187-176.25zm0 0" fill="url(#c)"/><path d="m46.511719 308.582031c0 4.605469-3.734375 8.339844-8.339844 8.339844s-8.339844-3.734375-8.339844-8.339844 3.734375-8.339843 8.339844-8.339843 8.339844 3.734374 8.339844 8.339843zm0 0" fill="url(#e)"/><path d="m98.417969 240.632812c0 4.605469-3.734375 8.339844-8.34375 8.339844-4.605469 0-8.339844-3.734375-8.339844-8.339844 0-4.605468 3.734375-8.339843 8.339844-8.339843 4.609375 0 8.34375 3.734375 8.34375 8.339843zm0 0" fill="url(#f)"/><path d="m81.445312 395.007812c0 4.605469-3.734374 8.339844-8.339843 8.339844s-8.339844-3.734375-8.339844-8.339844c0-4.609374 3.734375-8.34375 8.339844-8.34375s8.339843 3.734376 8.339843 8.34375zm0 0" fill="url(#g)"/><path d="m449.882812 216.589844c0 4.605468-3.734374 8.339844-8.34375 8.339844-4.605468 0-8.339843-3.734376-8.339843-8.339844 0-4.605469 3.734375-8.339844 8.339843-8.339844 4.609376 0 8.34375 3.734375 8.34375 8.339844zm0 0" fill="url(#h)"/><path d="m387.785156 120.351562c0 4.605469-3.734375 8.339844-8.339844 8.339844-4.605468 0-8.339843-3.734375-8.339843-8.339844 0-4.609374 3.734375-8.339843 8.339843-8.339843 4.605469 0 8.339844 3.730469 8.339844 8.339843zm0 0" fill="url(#i)"/><path d="m313.199219 84.425781c0 4.605469-3.734375 8.339844-8.339844 8.339844-4.609375 0-8.339844-3.734375-8.339844-8.339844s3.730469-8.339843 8.339844-8.339843c4.605469 0 8.339844 3.734374 8.339844 8.339843zm0 0" fill="url(#j)"/><path d="m46.511719 220.46875c0 4.605469-3.734375 8.339844-8.339844 8.339844s-8.339844-3.734375-8.339844-8.339844c0-4.609375 3.734375-8.34375 8.339844-8.34375s8.339844 3.734375 8.339844 8.34375zm0 0" fill="url(#k)"/><path d="m394.980469 255.074219c0 4.605469-3.734375 8.339843-8.339844 8.339843s-8.339844-3.734374-8.339844-8.339843 3.734375-8.339844 8.339844-8.339844 8.339844 3.734375 8.339844 8.339844zm0 0" fill="url(#l)"/><path d="m115.386719 336.710938c0 4.605468-3.734375 8.339843-8.339844 8.339843-4.609375 0-8.339844-3.734375-8.339844-8.339843 0-4.609376 3.730469-8.34375 8.339844-8.34375 4.605469 0 8.339844 3.734374 8.339844 8.34375zm0 0" fill="url(#m)"/><path d="m377.953125 334c0 4.605469-3.734375 8.339844-8.339844 8.339844s-8.339843-3.734375-8.339843-8.339844c0-4.609375 3.734374-8.34375 8.339843-8.34375s8.339844 3.734375 8.339844 8.34375zm0 0" fill="url(#n)"/><path d="m418.875 379.753906c0 4.609375-3.734375 8.34375-8.339844 8.34375-4.605468 0-8.339844-3.734375-8.339844-8.34375 0-4.605468 3.734376-8.339844 8.339844-8.339844 4.605469 0 8.339844 3.734376 8.339844 8.339844zm0 0" fill="url(#o)"/><path d="m249.546875 64.910156c0 4.605469-3.734375 8.339844-8.339844 8.339844-4.609375 0-8.339843-3.734375-8.339843-8.339844 0-4.605468 3.730468-8.339844 8.339843-8.339844 4.605469 0 8.339844 3.734376 8.339844 8.339844zm0 0" fill="url(#p)"/><path d="m185.777344 80.792969c0 4.605469-3.734375 8.339843-8.339844 8.339843s-8.339844-3.734374-8.339844-8.339843 3.734375-8.339844 8.339844-8.339844 8.339844 3.734375 8.339844 8.339844zm0 0" fill="url(#q)"/><path d="m441.539062 296.976562c0 4.609376-3.734374 8.339844-8.339843 8.339844s-8.339844-3.730468-8.339844-8.339844c0-4.605468 3.734375-8.339843 8.339844-8.339843s8.339843 3.734375 8.339843 8.339843zm0 0" fill="url(#r)"/><path d="m150.195312 168.308594 40.300782-40.300782-64.347656-64.347656c-17.144532 9.152344-33.039063 20.335938-47.359376 33.238282zm0 0" fill="url(#s)"/><path d="m372.046875 470.792969c-38.195313 26.039062-84.375 41.242187-134.085937 41.207031-49.710938-.035156-95.867188-15.300781-134.027344-41.394531l70.011718-194.40625 128.367188.089843zm0 0" fill="url(#u)"/><path d="m302.3125 276.289062-128.367188-.089843-55.273437 153.484375 78.734375 78.84375c13.179688 2.273437 26.730469 3.464844 40.554688 3.472656 49.710937.035156 95.890624-15.167969 134.085937-41.203125zm0 0" fill="url(#w)"/><path d="m238.078125 346.351562c-20.144531-.015624-39.707031-2.535156-58.386719-7.257812-23.050781-5.835938-46.738281 7-54.792968 29.367188l-9.757813 27.101562c-6.890625 19.132812 1.855469 40.339844 20.191406 49.136719 31.078125 14.902343 65.898438 23.261719 102.660157 23.285156 36.765624.027344 71.597656-8.28125 102.695312-23.144531 18.347656-8.765625 27.125-29.964844 20.261719-49.105469l-9.722657-27.113281c-8.023437-22.378906-31.691406-35.246094-54.75-29.445313-18.6875 4.699219-38.25 7.191407-58.398437 7.175781zm0 0" fill="url(#y)"/><path d="m360.949219 395.734375-9.722657-27.113281c-8.023437-22.382813-31.691406-35.246094-54.75-29.445313-18.6875 4.699219-38.25 7.191407-58.398437 7.175781-20.144531-.011718-39.707031-2.53125-58.386719-7.257812-12.347656-3.125-24.875-.890625-35.085937 5.296875l2.429687 9.269531c2.34375 22.28125 12.5625 41.980469 27.699219 56.488282l57.675781 57.753906c1.859375.042968 3.71875.082031 5.585938.082031 36.761718.027344 71.59375-8.28125 102.695312-23.144531 18.34375-8.765625 27.121094-29.964844 20.257813-49.105469zm0 0" fill="url(#z)"/><path d="m77.40625 95.015625c-6.289062-.003906-11.382812-5.105469-11.378906-11.394531l.042968-57.175782c.003907-6.289062 5.101563-11.382812 11.390626-11.378906 6.289062.003906 11.382812 5.105469 11.375 11.394532l-.039063 57.175781c-.003906 6.289062-5.105469 11.382812-11.390625 11.378906zm0 0" fill="url(#B)"/><path d="m114.867188 95.042969c-6.289063-.003907-11.382813-5.105469-11.375-11.394531l.023437-37.863282c.003906-6.289062 5.105469-11.382812 11.394531-11.375 6.285156.003906 11.378906 5.105469 11.375 11.390625l-.027344 37.863281c-.003906 6.289063-5.101562 11.382813-11.390624 11.378907zm0 0" fill="url(#C)"/><path d="m169.808594 145.222656c-2.914063-.003906-5.828125-1.117187-8.050782-3.339844l-29.855468-29.898437c-9.199219-9.214844-21.441406-14.292969-34.464844-14.304687l-13.480469-.007813c-31.933593-.023437-57.898437-26.023437-57.875-57.960937l.019531-28.335938c0-6.285156 5.101563-11.37890625 11.390626-11.375 6.289062.00390625 11.382812 5.105469 11.375 11.390625l-.019532 28.335937c-.011718 19.382813 15.746094 35.160157 35.125 35.175782l13.480469.007812c19.105469.015625 37.0625 7.46875 50.5625 20.984375l29.855469 29.898438c4.441406 4.449219 4.4375 11.65625-.011719 16.101562-2.226563 2.21875-5.136719 3.328125-8.050781 3.328125zm0 0" fill="url(#D)"/><path d="m399.101562 95.238281c6.289063.003907 11.390626-5.085937 11.394532-11.375l.039062-57.175781c.003906-6.289062-5.085937-11.390625-11.375-11.394531-6.289062-.003907-11.390625 5.089843-11.394531 11.375l-.039063 57.179687c-.003906 6.285156 5.089844 11.386719 11.375 11.390625zm0 0" fill="url(#E)"/><path d="m361.640625 95.214844c6.289063.003906 11.390625-5.089844 11.394531-11.378906l.023438-37.863282c.003906-6.285156-5.085938-11.386718-11.375-11.390625-6.289063-.003906-11.386719 5.089844-11.390625 11.375l-.027344 37.863281c-.003906 6.289063 5.085937 11.386719 11.375 11.394532zm0 0" fill="url(#F)"/><path d="m306.628906 145.316406c2.914063.003906 5.828125-1.105468 8.054688-3.328125l29.898437-29.855469c9.214844-9.199218 21.460938-14.265624 34.484375-14.253906l13.480469.007813c31.9375.023437 57.9375-25.941407 57.957031-57.878907l.019532-28.335937c.003906-6.289063-5.085938-11.386719-11.375-11.390625-6.289063-.003906-11.386719 5.089844-11.390626 11.375l-.019531 28.335938c-.015625 19.378906-15.792969 35.140624-35.175781 35.125l-13.480469-.007813c-19.105469-.015625-37.070312 7.414063-50.589843 20.910156l-29.898438 29.855469c-4.449219 4.445312-4.453125 11.652344-.011719 16.101562 2.222657 2.226563 5.136719 3.339844 8.046875 3.339844zm0 0" fill="url(#G)"/><path d="m184.96875 132.84375-5.941406 12.316406-10.535156 21.84375c-9.417969 19.507813-29.167969 31.894532-50.824219 31.878906l-50.402344-.035156c-14.84375-.007812-24.585937-15.527344-18.128906-28.898437l2.550781-5.285157c9.40625-19.503906 29.15625-31.894531 50.8125-31.875zm0 0" fill="url(#H)"/><path d="m179.027344 145.160156-10.535156 21.84375c-9.417969 19.507813-29.167969 31.894532-50.824219 31.878906l-33.09375-.023437c-9.925781-2.335937-15.75-13.496094-11.03125-23.265625l2.085937-4.332031c7.722656-16 23.925782-26.160157 41.6875-26.148438zm0 0" fill="url(#J)"/><path d="m409.089844 199.085938-50.398438-.035157c-21.660156-.015625-41.390625-12.429687-50.78125-31.949219l-10.503906-21.859374-5.914062-12.324219 82.457031.058593c21.660156.015626 41.390625 12.429688 50.777343 31.949219l2.542969 5.289063c6.425781 13.378906-3.324219 28.882812-18.179687 28.871094zm0 0" fill="url(#K)"/><path d="m391.785156 199.074219-33.09375-.023438c-21.660156-.015625-41.390625-12.429687-50.78125-31.949219l-10.503906-21.859374 61.710938.042968c17.769531.011719 33.949218 10.195313 41.648437 26.203125l2.082031 4.335938c4.703125 9.773437-1.136718 20.925781-11.0625 23.25zm0 0" fill="url(#L)"/><path d="m360.570312 214.828125c-.011718 17.117187-2.824218 33.488281-7.980468 48.589844-1.375 3.269531-2.636719 6.582031-3.773438 9.945312-4.015625 11.644531-6.734375 23.761719-8.050781 36.167969l-11.652344 44.257812c-2.476562 23.28125-13.550781 43.757813-29.855469 58.390626-16.292968 14.648437-37.828124 23.464843-61.242187 23.449218-46.828125-.03125-86.082031-35.398437-90.984375-81.96875l-11.589844-44.269531c-1.300781-12.410156-4-24.53125-8-36.183594-1.136718-3.363281-2.390625-6.675781-3.761718-9.949219-5.132813-15.105468-7.921876-31.480468-7.910157-48.601562 0-.332031 0-.664062.003907-.996094.386718-54.453125 41.503906-99.835937 95.527343-106.667968 17.886719-2.265626 36.003907-2.25 53.886719.035156 54.015625 6.910156 95.070312 52.351562 95.378906 106.804687.003906.328125.003906.664063.003906.996094zm0 0" fill="url(#M)"/><path d="m279.855469 404.222656c-.3125.179688-.628907.351563-.953125.507813-.238282.144531-.460938.261719-.695313.378906-.273437.144531-.550781.277344-.824219.40625-.589843.300781-1.191406.589844-1.78125.875-.757812.355469-1.519531.707031-2.277343 1.035156-.695313.3125-1.402344.601563-2.109375.886719-.890625.367188-1.792969.71875-2.695313 1.046875-.550781.207031-1.113281.417969-1.675781.613281-.339844.117188-.695312.234375-1.035156.339844-.089844.039062-.195313.078125-.289063.101562-2.171875.71875-4.371093 1.347657-6.609375 1.894532-6.78125 1.65625-13.847656 2.53125-21.125 2.523437-14.566406-.007812-28.292968-3.539062-40.410156-9.777343-38.164062-19.671876-34.394531-75.515626 5.769531-90.683594 10.789063-4.074219 22.492188-6.304688 34.714844-6.296875 12.226563.011719 23.925781 2.257812 34.707031 6.347656 19.390625 7.34375 30.265625 24.179687 32.035156 41.824219 1.84375 18.351562-6.179687 37.597656-24.746093 47.976562zm0 0" fill="url(#N)"/><path d="m279.855469 404.222656c-.3125.179688-.628907.351563-.953125.507813-.5.273437-1.011719.535156-1.519532.785156-.589843.300781-1.191406.585937-1.78125.875-.757812.351563-1.519531.707031-2.277343 1.035156-.695313.3125-1.402344.597657-2.109375.886719-.890625.367188-1.792969.71875-2.695313 1.042969-.550781.210937-1.113281.421875-1.675781.617187-.339844.117188-.695312.234375-1.035156.339844-.089844.039062-.195313.078125-.289063.101562l-57.074219-57.15625c-5.089843-4.742187-8.132812-10.722656-8.128906-17.242187.011719-15.3125 16.824219-27.722656 37.542969-27.707031 12.941406.007812 24.339844 4.859375 31.089844 12.234375l35.652343 35.703125c1.84375 18.351562-6.179687 37.597656-24.746093 47.976562zm0 0" fill="url(#O)"/><path d="m275.359375 336.042969c0-15.316407-16.796875-27.730469-37.519531-27.730469s-37.523438 12.414062-37.523438 27.730469c0 15.320312 16.800782 27.734375 37.523438 27.734375s37.519531-12.414063 37.519531-27.734375zm0 0" fill="url(#P)"/><path d="m179.839844 237.09375c0-10.425781-6.144532-18.871094-13.722656-18.871094-7.582032 0-13.726563 8.445313-13.726563 18.871094 0 10.421875 6.144531 18.871094 13.726563 18.871094 7.578124 0 13.722656-8.449219 13.722656-18.871094zm0 0" fill="url(#Q)"/><path d="m323.917969 237.191406c0-10.421875-6.144531-18.871094-13.722657-18.871094-7.582031 0-13.726562 8.449219-13.726562 18.871094s6.144531 18.871094 13.726562 18.871094c7.578126 0 13.722657-8.449219 13.722657-18.871094zm0 0" fill="url(#R)"/></svg>