<svg xmlns="http://www.w3.org/2000/svg" height="512pt" version="1.1" viewBox="0 0 512 512" width="512pt">
<g id="surface1">
<path d="M 512 256 C 512 397.386719 397.386719 512 256 512 C 114.613281 512 0 397.386719 0 256 C 0 114.613281 114.613281 0 256 0 C 397.386719 0 512 114.613281 512 256 Z M 512 256 " style=" stroke:none;fill-rule:nonzero;fill:rgb(99.607843%,41.568627%,8.627451%);fill-opacity:1;" />
<path d="M 512 256 C 512 255.214844 511.976562 254.429688 511.96875 253.644531 L 315.324219 57 L 342.214844 202.539062 L 196.675781 57 L 197.121094 367.363281 L 124.742188 428.355469 L 202.847656 506.460938 C 219.996094 510.082031 237.773438 512 256 512 C 397.386719 512 512 397.386719 512 256 Z M 512 256 " style=" stroke:none;fill-rule:nonzero;fill:rgb(94.901961%,27.058824%,0%);fill-opacity:1;" />
<path d="M 131.464844 479.699219 C 168.328125 500.265625 210.789062 512 256 512 C 301.210938 512 343.671875 500.265625 380.535156 479.699219 L 347.023438 287.34375 L 164.976562 287.34375 Z M 131.464844 479.699219 " style=" stroke:none;fill-rule:nonzero;fill:rgb(20%,22.352941%,25.098039%);fill-opacity:1;" />
<path d="M 380.535156 479.699219 L 347.023438 287.34375 L 255.761719 287.34375 L 255.761719 511.996094 C 255.839844 511.996094 255.921875 512 256 512 C 301.210938 512 343.671875 500.265625 380.535156 479.699219 Z M 380.535156 479.699219 " style=" stroke:none;fill-rule:nonzero;fill:rgb(13.72549%,15.294118%,16.862745%);fill-opacity:1;" />
<path d="M 196.675781 191.734375 L 164.777344 191.734375 C 144.632812 191.734375 128.300781 175.40625 128.300781 155.261719 C 128.300781 146.980469 131.121094 138.941406 136.296875 132.476562 L 196.675781 57 Z M 196.675781 191.734375 " style=" stroke:none;fill-rule:nonzero;fill:rgb(25.490196%,28.627451%,32.156863%);fill-opacity:1;" />
<path d="M 315.324219 191.734375 L 347.222656 191.734375 C 367.367188 191.734375 383.699219 175.40625 383.699219 155.261719 C 383.699219 146.980469 380.878906 138.941406 375.703125 132.476562 L 315.324219 57 Z M 315.324219 191.734375 " style=" stroke:none;fill-rule:nonzero;fill:rgb(20%,22.352941%,25.098039%);fill-opacity:1;" />
<path d="M 325.121094 149.921875 L 186.878906 149.921875 C 163.027344 149.921875 143.695312 169.253906 143.695312 193.101562 L 143.695312 279.066406 C 143.695312 293.453125 150.863281 306.898438 162.808594 314.917969 L 176.488281 324.101562 C 188.433594 332.121094 195.601562 345.5625 195.601562 359.953125 C 195.601562 383.800781 214.933594 403.132812 238.78125 403.132812 L 273.21875 403.132812 C 297.066406 403.132812 316.398438 383.800781 316.398438 359.953125 C 316.398438 345.5625 323.566406 332.121094 335.511719 324.101562 L 349.191406 314.917969 C 361.136719 306.898438 368.304688 293.453125 368.304688 279.066406 L 368.304688 193.101562 C 368.304688 169.253906 348.972656 149.921875 325.121094 149.921875 Z M 325.121094 149.921875 " style=" stroke:none;fill-rule:nonzero;fill:rgb(38.823529%,41.176471%,47.058824%);fill-opacity:1;" />
<path d="M 325.121094 149.921875 L 255.761719 149.921875 L 255.761719 403.132812 L 273.21875 403.132812 C 297.066406 403.132812 316.398438 383.800781 316.398438 359.949219 C 316.398438 345.5625 323.566406 332.117188 335.511719 324.097656 L 349.191406 314.914062 C 361.136719 306.894531 368.304688 293.453125 368.304688 279.0625 L 368.304688 193.101562 C 368.304688 169.253906 348.972656 149.921875 325.121094 149.921875 Z M 325.121094 149.921875 " style=" stroke:none;fill-rule:nonzero;fill:rgb(33.333333%,35.294118%,40%);fill-opacity:1;" />
<path d="M 387.257812 428.355469 C 305.902344 481.40625 206.097656 481.40625 124.742188 428.355469 C 128.9375 419.949219 133.132812 411.539062 137.328125 403.132812 C 210.878906 451.097656 301.117188 451.097656 374.671875 403.132812 C 378.867188 411.539062 383.0625 419.949219 387.257812 428.355469 Z M 387.257812 428.355469 " style=" stroke:none;fill-rule:nonzero;fill:rgb(100%,83.137255%,0%);fill-opacity:1;" />
<path d="M 387.257812 428.355469 C 383.0625 419.949219 378.867188 411.539062 374.671875 403.132812 C 337.824219 427.160156 296.789062 439.152344 255.761719 439.105469 L 255.761719 468.144531 C 301.132812 468.191406 346.507812 454.929688 387.257812 428.355469 Z M 387.257812 428.355469 " style=" stroke:none;fill-rule:nonzero;fill:rgb(99.215686%,72.941176%,7.058824%);fill-opacity:1;" />
<path d="M 276.90625 474.566406 C 276.90625 486.113281 267.546875 495.472656 256 495.472656 C 244.453125 495.472656 235.09375 486.113281 235.09375 474.566406 C 235.09375 463.019531 244.453125 453.660156 256 453.660156 C 267.546875 453.660156 276.90625 463.019531 276.90625 474.566406 Z M 276.90625 474.566406 " style=" stroke:none;fill-rule:nonzero;fill:rgb(100%,63.921569%,0%);fill-opacity:1;" />
<path d="M 256 453.660156 C 255.921875 453.660156 255.84375 453.671875 255.761719 453.671875 L 255.761719 495.460938 C 255.84375 495.464844 255.921875 495.472656 256 495.472656 C 267.546875 495.472656 276.90625 486.113281 276.90625 474.566406 C 276.90625 463.019531 267.546875 453.660156 256 453.660156 Z M 256 453.660156 " style=" stroke:none;fill-rule:nonzero;fill:rgb(100%,58.431373%,0%);fill-opacity:1;" />
<path d="M 204.761719 218.957031 L 177.402344 218.957031 L 195.238281 238.949219 C 195.472656 239.238281 195.722656 239.515625 195.980469 239.785156 L 195.984375 239.785156 C 198.210938 242.074219 201.316406 243.496094 204.761719 243.496094 C 211.527344 243.496094 217.015625 238.011719 217.015625 231.242188 L 217.015625 231.214844 C 217.015625 224.445312 211.527344 218.957031 204.761719 218.957031 Z M 204.761719 218.957031 " style=" stroke:none;fill-rule:nonzero;fill:rgb(20%,22.352941%,25.098039%);fill-opacity:1;" />
<path d="M 334.597656 218.957031 L 307.238281 218.957031 C 300.472656 218.957031 294.984375 224.445312 294.984375 231.214844 L 294.984375 231.242188 C 294.984375 238.011719 300.472656 243.496094 307.238281 243.496094 C 311.085938 243.496094 314.515625 241.722656 316.761719 238.949219 Z M 334.597656 218.957031 " style=" stroke:none;fill-rule:nonzero;fill:rgb(13.72549%,15.294118%,16.862745%);fill-opacity:1;" />
<path d="M 262.5 367.558594 L 262.5 318.988281 C 269.054688 317.378906 274.867188 313.375 278.699219 307.628906 L 285.855469 296.894531 C 291.816406 287.953125 285.40625 275.980469 274.660156 275.980469 L 237.339844 275.980469 C 226.59375 275.980469 220.183594 287.953125 226.144531 296.894531 L 233.300781 307.628906 C 237.132812 313.375 242.945312 317.378906 249.5 318.988281 L 249.5 367.558594 C 231.316406 368.800781 215.085938 375.183594 203.453125 384.765625 C 206.347656 388.882812 209.941406 392.464844 214.066406 395.351562 C 224.324219 387.429688 239.316406 382.417969 256 382.417969 C 272.683594 382.417969 287.675781 387.429688 297.933594 395.351562 C 302.058594 392.464844 305.652344 388.878906 308.546875 384.765625 C 296.914062 375.183594 280.683594 368.800781 262.5 367.558594 Z M 262.5 367.558594 " style=" stroke:none;fill-rule:nonzero;fill:rgb(25.490196%,28.627451%,32.156863%);fill-opacity:1;" />
<path d="M 262.5 367.558594 L 262.5 318.988281 C 269.054688 317.378906 274.867188 313.375 278.699219 307.628906 L 285.855469 296.894531 C 291.816406 287.953125 285.40625 275.980469 274.660156 275.980469 L 255.761719 275.980469 L 255.761719 382.425781 C 255.84375 382.425781 255.921875 382.421875 256 382.421875 C 272.683594 382.421875 287.675781 387.429688 297.933594 395.351562 C 302.058594 392.46875 305.652344 388.882812 308.546875 384.765625 C 296.914062 375.183594 280.683594 368.800781 262.5 367.558594 Z M 262.5 367.558594 " style=" stroke:none;fill-rule:nonzero;fill:rgb(20%,22.352941%,25.098039%);fill-opacity:1;" />
</g>
</svg>