<svg id="Capa_1" enable-background="new 0 0 512 512" height="512" viewBox="0 0 512 512" width="512" xmlns="http://www.w3.org/2000/svg"><g><path d="m416.67 455.31c58.14-46.93 95.33-118.78 95.33-199.31 0-141.38-114.62-256-256-256s-256 114.62-256 256c0 80.53 37.19 152.38 95.33 199.31z" fill="#853bcc"/><path d="m262.976 122.495-32.117-32.117-45.637-4.572-41.904-41.904c-9.382 17.627-1.049 43.675-1.049 43.675l68.306 68.296-112.96 19.189 35.166 35.166-69.159 7.744 65.81 65.81-26.566 9.201 88.053 88.053 82.516 68.815c18.177-4.291 62.94-5.997 79.387-13.938l63.846 19.397c58.142-46.93 95.332-118.78 95.332-199.31 0-28.79-4.755-56.469-13.519-82.298l-129.799-129.8c9.901 38.656-105.706 78.593-105.706 78.593z" fill="#593099"/><g><path d="m266.68 475.72-14.294 5.152-16.55-14.042-90.926 19.87c-17.653-8.544-34.471-19.194-49.58-31.39v-39.11c0-80.39 65.17-145.57 145.56-145.57h15.11z" fill="#0ed2b3"/></g><path d="m416.67 416.2v39.11c-15.132 12.214-31.895 22.838-49.58 31.39 0 0-53.858-27.391-92.235-26.789 0 0-36.528 14.647-37.898 14.647l19.043-203.928h15.11c80.39 0 145.56 65.18 145.56 145.57z" fill="#0ab69f"/><path d="m304.635 438.496c-.47.01-19.964 55.829-19.964 55.829l-28.671 17.675c-39.81 0-77.49-9.09-111.09-25.3 2.61-26.29 11.52-57.16 36.1-79.06 47.74-42.54 38.36-77.18 38.36-77.18l36.63 3.47z" fill="#ffd15b"/><path d="m367.09 486.7c-32.04 15.47-67.8 24.45-105.58 25.24-.47.01-.94.02-1.41.03-1.36.02-2.73.03-4.1.03v-178.07l36.63-3.47s-9.38 34.64 38.37 77.18c24.57 21.9 33.49 52.77 36.09 79.06z" fill="#feb237"/><path d="m147.858 188.516-84.234 29.456s66.861 15.317 39.244 75.011c0 0 52.883 6.906 43.354 64.108l76.998-72.177z" fill="#ffd15b"/><path d="m364.142 188.516 84.226 29.456s-66.861 15.317-39.244 75.011c0 0-52.883 6.906-43.354 64.108l-76.998-72.177z" fill="#feb237"/><g><g><path d="m241.882 111.496s-5.459-37.647-59.422-41.59c-40.498-2.959-39.142-26.004-39.142-26.004s-26.9 40.284 16.39 53.257c35.088 10.516 34.937 31.498 34.937 31.498z" fill="#fff"/></g><g><path d="m270.117 111.496s5.459-37.647 59.422-41.59c40.498-2.959 39.142-26.004 39.142-26.004s26.9 40.284-16.39 53.257c-35.088 10.516-34.937 31.498-34.937 31.498z" fill="#eaeaea"/></g></g><g><path d="m202.019 128.658h-123.713l5.02 21.573c5.217 22.42 25.199 38.285 48.217 38.285h46.527z" fill="#0ed2b3"/><path d="m256 108.876c-59.974 0-99.88 26.902-108.215 80.103-8.336 53.201 37.827 38.393 52.388 112.999 9.74 49.903 22.443 58.007 55.827 58.007l64.2-135.537z" fill="#86e8d0"/><path d="m308.936 128.658h124.757l-5.02 21.573c-5.217 22.42-25.199 38.285-48.217 38.285h-46.527z" fill="#0ab69f"/></g><g><path d="m256 108.876c59.974 0 99.88 26.902 108.215 80.103 8.336 53.201-37.827 38.393-52.388 112.999-9.739 49.903-22.443 58.007-55.827 58.007z" fill="#0ed2b3"/><g><g><ellipse cx="218.149" cy="185.806" fill="#6d574e" rx="18.319" ry="18.894"/><ellipse cx="293.851" cy="185.806" fill="#4c3b38" rx="18.319" ry="18.894"/></g></g></g><g><ellipse cx="231.424" cy="295.77" fill="#0ed2b3" rx="12.053" ry="17.341"/><ellipse cx="280.576" cy="295.77" fill="#0ab69f" rx="12.053" ry="17.341"/></g></g></svg>