<svg width="17" height="12" viewBox="0 0 17 12" fill="none" xmlns="http://www.w3.org/2000/svg">
<path d="M12.4667 3.38182V3C12.4667 1.28864 9.78917 0 6.23333 0C2.6775 0 0 1.28864 0 3V5.72727C0 7.15227 1.85583 8.28409 4.53333 8.625V9C4.53333 10.7114 7.21083 12 10.7667 12C14.3225 12 17 10.7114 17 9V6.27273C17 4.86136 15.2008 3.72955 12.4667 3.38182ZM15.8667 6.27273C15.8667 7.17273 13.685 8.18182 10.7667 8.18182C10.5046 8.18182 10.2425 8.175 9.98042 8.15455C11.5104 7.62273 12.4667 6.75 12.4667 5.72727V4.47955C14.5846 4.78636 15.8667 5.61136 15.8667 6.27273ZM4.53333 7.51364V5.89773C5.09708 5.96746 5.66496 6.00163 6.23333 6C6.80171 6.00163 7.36959 5.96746 7.93333 5.89773V7.51364C7.37096 7.59799 6.80249 7.63903 6.23333 7.63636C5.66418 7.63903 5.09571 7.59799 4.53333 7.51364ZM11.3333 4.76591V5.72727C11.3333 6.3 10.455 6.91364 9.06667 7.28864V5.69318C9.98042 5.48182 10.7525 5.16136 11.3333 4.76591ZM6.23333 1.09091C9.15167 1.09091 11.3333 2.1 11.3333 3C11.3333 3.9 9.15167 4.90909 6.23333 4.90909C3.315 4.90909 1.13333 3.9 1.13333 3C1.13333 2.1 3.315 1.09091 6.23333 1.09091ZM1.13333 5.72727V4.76591C1.71417 5.16136 2.48625 5.48182 3.4 5.69318V7.28864C2.01167 6.91364 1.13333 6.3 1.13333 5.72727ZM5.66667 9V8.71364L6.23333 8.72727C6.51194 8.72727 6.78111 8.72045 7.04083 8.70682C7.32417 8.80227 7.62167 8.88409 7.93333 8.95909V10.5614C6.545 10.1864 5.66667 9.57273 5.66667 9ZM9.06667 10.7864V9.16364C9.63034 9.23482 10.1982 9.27126 10.7667 9.27273C11.335 9.27435 11.9029 9.24019 12.4667 9.17045V10.7864C11.3397 10.95 10.1936 10.95 9.06667 10.7864ZM13.6 10.5614V8.96591C14.5138 8.75455 15.2858 8.43409 15.8667 8.03864V9C15.8667 9.57273 14.9883 10.1864 13.6 10.5614Z" fill="#FF6263"/>
</svg>
