<svg width="24" height="24" viewBox="0 0 24 24" fill="none" xmlns="http://www.w3.org/2000/svg">
<path fill-rule="evenodd" clip-rule="evenodd" d="M5.781 3.219C5.85085 3.28867 5.90626 3.37143 5.94407 3.46255C5.98188 3.55367 6.00134 3.65135 6.00134 3.75C6.00134 3.84865 5.98188 3.94633 5.94407 4.03745C5.90626 4.12857 5.85085 4.21133 5.781 4.281L3.531 6.531C3.46133 6.60084 3.37857 6.65626 3.28745 6.69407C3.19633 6.73188 3.09865 6.75134 3 6.75134C2.90135 6.75134 2.80367 6.73188 2.71255 6.69407C2.62143 6.65626 2.53867 6.60084 2.469 6.531L1.719 5.781C1.64927 5.71127 1.59396 5.62848 1.55622 5.53737C1.51848 5.44626 1.49905 5.34861 1.49905 5.25C1.49905 5.15138 1.51848 5.05373 1.55622 4.96262C1.59396 4.87151 1.64927 4.78873 1.719 4.719C1.78873 4.64927 1.87152 4.59395 1.96263 4.55621C2.05374 4.51847 2.15139 4.49905 2.25 4.49905C2.34862 4.49905 2.44627 4.51847 2.53738 4.55621C2.62849 4.59395 2.71127 4.64927 2.781 4.719L3 4.9395L4.719 3.219C4.78867 3.14915 4.87143 3.09374 4.96255 3.05593C5.05367 3.01812 5.15135 2.99866 5.25 2.99866C5.34865 2.99866 5.44633 3.01812 5.53745 3.05593C5.62857 3.09374 5.71133 3.14915 5.781 3.219ZM5.781 9.219C5.85085 9.28867 5.90626 9.37143 5.94407 9.46255C5.98188 9.55367 6.00134 9.65135 6.00134 9.75C6.00134 9.84865 5.98188 9.94633 5.94407 10.0374C5.90626 10.1286 5.85085 10.2113 5.781 10.281L3.531 12.531C3.46133 12.6008 3.37857 12.6563 3.28745 12.6941C3.19633 12.7319 3.09865 12.7513 3 12.7513C2.90135 12.7513 2.80367 12.7319 2.71255 12.6941C2.62143 12.6563 2.53867 12.6008 2.469 12.531L1.719 11.781C1.57817 11.6402 1.49905 11.4492 1.49905 11.25C1.49905 11.0508 1.57817 10.8598 1.719 10.719C1.85983 10.5782 2.05084 10.4991 2.25 10.4991C2.44917 10.4991 2.64017 10.5782 2.781 10.719L3 10.9395L4.719 9.219C4.78867 9.14915 4.87143 9.09374 4.96255 9.05593C5.05367 9.01812 5.15135 8.99866 5.25 8.99866C5.34865 8.99866 5.44633 9.01812 5.53745 9.05593C5.62857 9.09374 5.71133 9.14915 5.781 9.219ZM5.781 15.219C5.85085 15.2887 5.90626 15.3714 5.94407 15.4625C5.98188 15.5537 6.00134 15.6513 6.00134 15.75C6.00134 15.8486 5.98188 15.9463 5.94407 16.0374C5.90626 16.1286 5.85085 16.2113 5.781 16.281L3.531 18.531C3.46133 18.6008 3.37857 18.6563 3.28745 18.6941C3.19633 18.7319 3.09865 18.7513 3 18.7513C2.90135 18.7513 2.80367 18.7319 2.71255 18.6941C2.62143 18.6563 2.53867 18.6008 2.469 18.531L1.719 17.781C1.57817 17.6402 1.49905 17.4492 1.49905 17.25C1.49905 17.0508 1.57817 16.8598 1.719 16.719C1.85983 16.5782 2.05084 16.4991 2.25 16.4991C2.44917 16.4991 2.64017 16.5782 2.781 16.719L3 16.9395L4.719 15.219C4.78867 15.1492 4.87143 15.0937 4.96255 15.0559C5.05367 15.0181 5.15135 14.9987 5.25 14.9987C5.34865 14.9987 5.44633 15.0181 5.53745 15.0559C5.62857 15.0937 5.71133 15.1492 5.781 15.219Z" fill="#FF6263"/>
<path d="M7.71967 16.7197C7.57902 16.8603 7.5 17.0511 7.5 17.25C7.5 17.4489 7.57902 17.6397 7.71967 17.7803C7.86032 17.921 8.05109 18 8.25 18L16.5108 17.8593C16.7097 17.8593 16.9005 17.7803 17.0412 17.6397C17.1818 17.499 17.2608 17.3083 17.2608 17.1093C17.2608 16.9104 17.1818 16.7197 17.0412 16.579C16.9005 16.4384 16.7097 16.3593 16.5108 16.3593L8.25 16.5C8.05109 16.5 7.86032 16.579 7.71967 16.7197Z" fill="#FDCC03"/>
<path d="M7.71967 10.7197C7.57902 10.8603 7.5 11.0511 7.5 11.25C7.5 11.4489 7.57902 11.6397 7.71967 11.7803C7.86032 11.921 8.05109 12 8.25 12H21.75C21.9489 12 22.1397 11.921 22.2803 11.7803C22.421 11.6397 22.5 11.4489 22.5 11.25C22.5 11.0511 22.421 10.8603 22.2803 10.7197C22.1397 10.579 21.9489 10.5 21.75 10.5H8.25C8.05109 10.5 7.86032 10.579 7.71967 10.7197Z" fill="#FDCC03"/>
<path d="M7.71967 4.71967C7.57902 4.86032 7.5 5.05109 7.5 5.25C7.5 5.44891 7.57902 5.63968 7.71967 5.78033C7.86032 5.92098 8.05109 6 8.25 6H21.75C21.9489 6 22.1397 5.92098 22.2803 5.78033C22.421 5.63968 22.5 5.44891 22.5 5.25C22.5 5.05109 22.421 4.86032 22.2803 4.71967C22.1397 4.57902 21.9489 4.5 21.75 4.5H8.25C8.05109 4.5 7.86032 4.57902 7.71967 4.71967Z" fill="#FDCC03"/>
</svg>
