<svg width="24" height="24" viewBox="0 0 24 24" fill="none" xmlns="http://www.w3.org/2000/svg">
<path d="M15 21H9M15 21V11.2992C15 11.1401 14.9368 10.9875 14.8243 10.875C14.7117 10.7625 14.5591 10.6992 14.4 10.6992H9.6C9.44087 10.6992 9.28826 10.7625 9.17574 10.875C9.06321 10.9875 9 11.1401 9 11.2992V21M15 21H20.4C20.5591 21 20.7117 20.9368 20.8243 20.8243C20.9368 20.7117 21 20.5591 21 20.4V18.1C21 17.9409 20.9368 17.7882 20.8243 17.6757C20.7117 17.5632 20.5591 17.5 20.4 17.5H15.6C15.4409 17.5 15.2883 17.5632 15.1757 17.6757C15.0632 17.7882 15 17.9409 15 18.1V21ZM9 21V16.1C9 15.9409 8.93679 15.7882 8.82426 15.6757C8.71174 15.5632 8.55913 15.5 8.4 15.5H3.6C3.44087 15.5 3.28826 15.5632 3.17574 15.6757C3.06321 15.7882 3 15.9409 3 16.1V20.4C3 20.5591 3.06321 20.7117 3.17574 20.8243C3.28826 20.9368 3.44087 21 3.6 21H9Z" stroke="#17D1BC" stroke-width="2" stroke-linecap="round" stroke-linejoin="round"/>
<path d="M11.7559 2.40862L10.9767 4.06051V4.06137L9.23323 4.32711C9.01036 4.3614 8.92036 4.64943 9.08322 4.81402L10.3433 6.09987L10.0458 7.91549C10.0081 8.14866 10.2421 8.32611 10.4419 8.21638L12.0002 7.35915L13.5586 8.21638C13.7591 8.32697 13.9923 8.14866 13.9546 7.91549L13.6571 6.09987L14.9172 4.81402C15.0792 4.64943 14.9901 4.3614 14.7663 4.32711L13.0245 4.06051L12.2445 2.40862C12.2235 2.3614 12.1892 2.32129 12.1458 2.29313C12.1025 2.26498 12.0519 2.25 12.0002 2.25C11.9485 2.25 11.8979 2.26498 11.8546 2.29313C11.8112 2.32129 11.7769 2.3614 11.7559 2.40862Z" fill="#4166EB"/>
</svg>
