<svg width="105" height="43" viewBox="0 0 105 43" fill="none" xmlns="http://www.w3.org/2000/svg">
<path d="M12.35 30L6.95 20.58V18.36H8.75C9.47 18.36 10.1 18.26 10.64 18.06C11.2 17.84 11.66 17.53 12.02 17.13C12.4 16.73 12.66 16.25 12.8 15.69H6.95V13.47H12.77C12.65 12.95 12.44 12.49 12.14 12.09C11.86 11.69 11.48 11.38 11 11.16C10.54 10.92 9.98 10.8 9.32 10.8H6.95V8.58H20.48V10.8H15.77C16.11 11.18 16.39 11.59 16.61 12.03C16.85 12.47 17.01 12.95 17.09 13.47H20.48V15.69H17.15C16.95 17.17 16.38 18.33 15.44 19.17C14.5 19.99 13.29 20.55 11.81 20.85L17.69 30H12.35ZM24.0283 25.4297C23.3936 25.4297 23.0762 25.1123 23.0762 24.4775V22.5439C23.0762 21.9873 23.2227 21.5039 23.5156 21.0938L31.6309 9.66797C31.9922 9.16016 32.4463 8.90625 32.9932 8.90625H35.1465C35.791 8.90625 36.1133 9.22363 36.1133 9.8584V21.7969H37.8857C38.5205 21.7969 38.8379 22.1143 38.8379 22.749V24.4775C38.8379 25.1123 38.5254 25.4297 37.9004 25.4297H36.1133V29.0479C36.1133 29.6826 35.7959 30 35.1611 30H32.9639C32.3291 30 32.0117 29.6826 32.0117 29.0479V25.4297H24.0283ZM27.1631 21.7969H32.0117V16.1279C32.0117 15.7373 32.0312 15.3467 32.0703 14.9561H32.0117L27.1631 21.7969ZM41.9141 12.8027C41.2793 12.8027 40.9619 12.4854 40.9619 11.8506V10.1221C40.9619 9.4873 41.2793 9.16992 41.9141 9.16992H53.8672C54.502 9.16992 54.8193 9.4873 54.8193 10.1221V11.7773C54.8193 12.2754 54.5752 12.7979 54.0869 13.3447C52.085 15.6006 50.6836 17.8516 49.8828 20.0977C49.082 22.3438 48.6816 25.0537 48.6816 28.2275V29.1357C48.6816 29.7705 48.3643 30.0879 47.7295 30.0879H45.5322C44.8975 30.0879 44.5801 29.7705 44.5801 29.1357V28.7402C44.5801 25.2148 45.1611 22.251 46.3232 19.8486C47.4951 17.4463 49.0479 15.0977 50.9814 12.8027V12.7441C50.5908 12.7832 50.2002 12.8027 49.8096 12.8027H41.9141ZM57.2949 15.7324C57.2949 13.584 57.9053 11.8701 59.126 10.5908C60.3467 9.31152 62.2119 8.67188 64.7217 8.67188C67.3975 8.67188 69.3311 9.57031 70.5225 11.3672C71.7236 13.1543 72.3242 15.6982 72.3242 18.999C72.3242 23.4033 71.5332 26.4209 69.9512 28.0518C68.3789 29.6826 66.3916 30.498 63.9893 30.498C63.0518 30.498 62.1191 30.3613 61.1914 30.0879C60.2637 29.8242 59.5508 29.4727 59.0527 29.0332C58.584 28.6133 58.4814 28.2031 58.7451 27.8027L59.7119 26.3525C60.0244 25.874 60.4785 25.874 61.0742 26.3525C61.3672 26.5869 61.792 26.792 62.3486 26.9678C62.915 27.1338 63.5059 27.2168 64.1211 27.2168C65.1465 27.2168 66.0889 26.7383 66.9482 25.7812C67.8076 24.8145 68.2373 23.1787 68.2373 20.874H68.1787C67.7393 21.5381 67.1289 22.0166 66.3477 22.3096C65.5664 22.5928 64.6143 22.7344 63.4912 22.7344C61.4502 22.7344 59.9072 22.0654 58.8623 20.7275C57.8174 19.3799 57.2949 17.7148 57.2949 15.7324ZM61.6895 15.7617C61.6895 17.0508 61.9336 17.9883 62.4219 18.5742C62.9102 19.1602 63.5938 19.4531 64.4727 19.4531C65.4395 19.4531 66.1865 19.0576 66.7139 18.2666C67.251 17.4756 67.5195 16.6064 67.5195 15.6592C67.5195 14.4678 67.2754 13.5547 66.7871 12.9199C66.2988 12.2754 65.5859 11.9531 64.6484 11.9531C63.6523 11.9531 62.9102 12.2217 62.4219 12.7588C61.9336 13.2959 61.6895 14.2969 61.6895 15.7617ZM74.873 15.7324C74.873 13.584 75.4834 11.8701 76.7041 10.5908C77.9248 9.31152 79.79 8.67188 82.2998 8.67188C84.9756 8.67188 86.9092 9.57031 88.1006 11.3672C89.3018 13.1543 89.9023 15.6982 89.9023 18.999C89.9023 23.4033 89.1113 26.4209 87.5293 28.0518C85.957 29.6826 83.9697 30.498 81.5674 30.498C80.6299 30.498 79.6973 30.3613 78.7695 30.0879C77.8418 29.8242 77.1289 29.4727 76.6309 29.0332C76.1621 28.6133 76.0596 28.2031 76.3232 27.8027L77.29 26.3525C77.6025 25.874 78.0566 25.874 78.6523 26.3525C78.9453 26.5869 79.3701 26.792 79.9268 26.9678C80.4932 27.1338 81.084 27.2168 81.6992 27.2168C82.7246 27.2168 83.667 26.7383 84.5264 25.7812C85.3857 24.8145 85.8154 23.1787 85.8154 20.874H85.7568C85.3174 21.5381 84.707 22.0166 83.9258 22.3096C83.1445 22.5928 82.1924 22.7344 81.0693 22.7344C79.0283 22.7344 77.4854 22.0654 76.4404 20.7275C75.3955 19.3799 74.873 17.7148 74.873 15.7324ZM79.2676 15.7617C79.2676 17.0508 79.5117 17.9883 80 18.5742C80.4883 19.1602 81.1719 19.4531 82.0508 19.4531C83.0176 19.4531 83.7646 19.0576 84.292 18.2666C84.8291 17.4756 85.0977 16.6064 85.0977 15.6592C85.0977 14.4678 84.8535 13.5547 84.3652 12.9199C83.877 12.2754 83.1641 11.9531 82.2266 11.9531C81.2305 11.9531 80.4883 12.2217 80 12.7588C79.5117 13.2959 79.2676 14.2969 79.2676 15.7617Z" fill="#4A9AE3"/>
<line x1="0.820282" y1="30.0163" x2="104.82" y2="11.0163" stroke="#ED6C68" stroke-width="2"/>
</svg>
