<svg width="21" height="21" viewBox="0 0 21 21" fill="none" xmlns="http://www.w3.org/2000/svg">
<path d="M13.125 18.375H7.875M13.125 18.375V9.88685C13.125 9.74761 13.0697 9.61407 12.9712 9.51562C12.8728 9.41716 12.7392 9.36185 12.6 9.36185H8.4C8.26076 9.36185 8.12723 9.41716 8.02877 9.51562C7.93031 9.61407 7.875 9.74761 7.875 9.88685V18.375M13.125 18.375H17.85C17.9892 18.375 18.1228 18.3197 18.2212 18.2212C18.3197 18.1228 18.375 17.9892 18.375 17.85V15.8375C18.375 15.6983 18.3197 15.5647 18.2212 15.4663C18.1228 15.3678 17.9892 15.3125 17.85 15.3125H13.65C13.5108 15.3125 13.3772 15.3678 13.2788 15.4663C13.1803 15.5647 13.125 15.6983 13.125 15.8375V18.375ZM7.875 18.375V14.0875C7.875 13.9483 7.81969 13.8147 7.72123 13.7163C7.62277 13.6178 7.48924 13.5625 7.35 13.5625H3.15C3.01076 13.5625 2.87723 13.6178 2.77877 13.7163C2.68031 13.8147 2.625 13.9483 2.625 14.0875V17.85C2.625 17.9892 2.68031 18.1228 2.77877 18.2212C2.87723 18.3197 3.01076 18.375 3.15 18.375H7.875Z" stroke="#FCD843" stroke-width="2" stroke-linecap="round" stroke-linejoin="round"/>
<path d="M10.2864 2.10754L9.60464 3.55295V3.5537L8.07908 3.78622C7.88407 3.81623 7.80532 4.06825 7.94782 4.21227L9.05037 5.33739L8.79011 6.92606C8.75711 7.13008 8.96187 7.28535 9.13662 7.18934L10.5002 6.43926L11.8637 7.18934C12.0392 7.2861 12.2433 7.13008 12.2103 6.92606L11.95 5.33739L13.0525 4.21227C13.1943 4.06825 13.1163 3.81623 12.9205 3.78622L11.3965 3.55295L10.7139 2.10754C10.6955 2.06622 10.6655 2.03112 10.6276 2.00649C10.5897 1.98186 10.5454 1.96875 10.5002 1.96875C10.455 1.96875 10.4107 1.98186 10.3728 2.00649C10.3348 2.03112 10.3048 2.06622 10.2864 2.10754Z" fill="#4166EB"/>
</svg>
