<svg width="34" height="34" viewBox="0 0 34 34" fill="none" xmlns="http://www.w3.org/2000/svg">
<path d="M24.3216 11.333H18.4169L19.5587 4.48342C19.5927 4.28034 19.582 4.0723 19.5274 3.87378C19.4727 3.67525 19.3755 3.49103 19.2424 3.33392C19.1093 3.17682 18.9435 3.05062 18.7567 2.96411C18.5698 2.8776 18.3664 2.83286 18.1605 2.83301H10.8618C10.5267 2.83311 10.2025 2.95201 9.94671 3.16859C9.69096 3.38516 9.52028 3.68539 9.46499 4.01592L7.1034 18.1826C7.06945 18.3856 7.08012 18.5935 7.13467 18.7919C7.18922 18.9903 7.28635 19.1745 7.41929 19.3316C7.55224 19.4886 7.7178 19.6149 7.90448 19.7015C8.09115 19.7881 8.29445 19.8329 8.50024 19.833H14.1669V31.1663L25.5144 13.5161C25.6521 13.302 25.7296 13.0547 25.7387 12.8003C25.7478 12.5459 25.6882 12.2938 25.5661 12.0704C25.4441 11.847 25.2641 11.6606 25.0451 11.5309C24.8261 11.4011 24.5761 11.3328 24.3216 11.333Z" fill="white"/>
</svg>
