<svg width="725" height="834" viewBox="0 0 725 834" fill="none" xmlns="http://www.w3.org/2000/svg">
<g filter="url(#filter0_d_6322_14067)">
<path d="M140 358.5C140 235.617 239.617 136 362.5 136C485.383 136 585 235.617 585 358.5V637.92C585 666.683 561.683 690 532.92 690H192.08C163.317 690 140 666.683 140 637.92V358.5Z" fill="#FDCC03"/>
<path d="M362.5 124.5C233.265 124.5 128.5 229.265 128.5 358.5V637.92C128.5 673.034 156.966 701.5 192.08 701.5H532.92C568.034 701.5 596.5 673.034 596.5 637.92V358.5C596.5 229.265 491.735 124.5 362.5 124.5Z" stroke="white" stroke-width="23"/>
</g>
<defs>
<filter id="filter0_d_6322_14067" x="0" y="0" width="725" height="834" filterUnits="userSpaceOnUse" color-interpolation-filters="sRGB">
<feFlood flood-opacity="0" result="BackgroundImageFix"/>
<feColorMatrix in="SourceAlpha" type="matrix" values="0 0 0 0 0 0 0 0 0 0 0 0 0 0 0 0 0 0 127 0" result="hardAlpha"/>
<feOffset dy="4"/>
<feGaussianBlur stdDeviation="58.5"/>
<feComposite in2="hardAlpha" operator="out"/>
<feColorMatrix type="matrix" values="0 0 0 0 0.921569 0 0 0 0 0.414902 0 0 0 0 0.254902 0 0 0 0.24 0"/>
<feBlend mode="normal" in2="BackgroundImageFix" result="effect1_dropShadow_6322_14067"/>
<feBlend mode="normal" in="SourceGraphic" in2="effect1_dropShadow_6322_14067" result="shape"/>
</filter>
</defs>
</svg>
