<?xml version="1.0" encoding="utf-8"?>
<!-- Generator: Adobe Illustrator 26.5.0, SVG Export Plug-In . SVG Version: 6.00 Build 0)  -->
<svg version="1.1" id="Layer_1" xmlns="http://www.w3.org/2000/svg" xmlns:xlink="http://www.w3.org/1999/xlink" x="0px" y="0px"
	 viewBox="0 0 214 29" style="enable-background:new 0 0 214 29;" xml:space="preserve">
<style type="text/css">
	.st0{fill:#010101;}
	.st1{fill:#069AC8;}
</style>
<g>
	<g>
		<path class="st0" d="M49.48,8.31h-6.13v5.8h5.54v0.75h-5.54v5.84h6.13v0.75h-7.02V7.56h7.02V8.31z"/>
		<path class="st0" d="M59.96,11.08c2.12,0,3.68,1.19,4.27,2.77V7.56h0.84V21.3h-0.84v-2.67c-0.56,1.58-2.06,2.82-4.27,2.82
			c-2.82,0-4.86-2.02-4.86-5.2C55.09,13.05,57.14,11.08,59.96,11.08z M60.07,11.81c-2.43,0-4.12,1.65-4.12,4.44
			c0,2.79,1.69,4.46,4.12,4.46c2.36,0,4.16-1.73,4.16-4.46C64.23,13.55,62.43,11.81,60.07,11.81z"/>
		<path class="st1" d="M70.68,7.56h8.8v0.75h-3.96v13.14h-0.89V8.31h-3.96V7.56z"/>
		<path class="st1" d="M90,21.44c-2.81,0-4.89-1.96-4.89-5.18c0-3.2,2.04-5.15,4.89-5.15c3.02,0,4.69,2.15,4.69,4.48
			c0,0.44,0,0.67-0.04,1h-8.69c0.07,2.8,1.96,4.13,4.04,4.13c1.98,0,3.41-1.06,3.74-2.72h0.87C94.22,19.98,92.57,21.44,90,21.44z
			 M85.96,15.91h7.89c0.13-2.8-1.83-4.09-3.87-4.09C87.92,11.81,86.05,13.13,85.96,15.91z"/>
		<path class="st1" d="M105.17,11.11c2.56,0,4.22,1.39,4.61,3.48h-0.87c-0.33-1.72-1.78-2.78-3.74-2.78c-2.15,0-4.02,1.43-4.02,4.44
			c0,3.04,1.87,4.46,4.02,4.46c1.96,0,3.41-1.04,3.74-2.78h0.87c-0.39,2.06-2.06,3.5-4.61,3.5c-2.83,0-4.87-1.96-4.87-5.18
			C100.3,13.06,102.34,11.11,105.17,11.11z"/>
		<path class="st1" d="M115.4,7.56h0.84v5.86c0.6-1.58,2.06-2.36,3.77-2.36c2.25,0,4.09,1.37,4.09,4.43v5.97h-0.83v-5.91
			c0-2.48-1.37-3.75-3.42-3.75c-2.12,0-3.62,1.33-3.62,4.17v5.5h-0.84V7.56z"/>
		<path class="st0" d="M133.54,7.56c3.21,0,4.63,1.68,4.63,3.98c0,2.08-1.17,3.58-3.52,3.92l3.64,5.99h-1.07l-3.56-5.92h-0.08h-2.97
			v5.92h-0.89V7.56H133.54z M133.54,8.35h-2.93v6.43h2.97c2.55,0,3.66-1.38,3.66-3.24C137.24,9.57,136.22,8.35,133.54,8.35z"/>
		<path class="st0" d="M148.8,21.44c-2.81,0-4.89-1.96-4.89-5.18c0-3.2,2.04-5.15,4.89-5.15c3.02,0,4.69,2.15,4.69,4.48
			c0,0.44,0,0.67-0.04,1h-8.69c0.07,2.8,1.96,4.13,4.04,4.13c1.98,0,3.41-1.06,3.74-2.72h0.87
			C153.02,19.98,151.37,21.44,148.8,21.44z M144.76,15.91h7.89c0.13-2.8-1.83-4.09-3.87-4.09
			C146.73,11.81,144.86,13.13,144.76,15.91z"/>
		<path class="st0" d="M160.04,11.11l3.81,9.4l3.81-9.4h0.91l-4.28,10.33h-0.89l-4.28-10.33H160.04z"/>
		<path class="st0" d="M186.11,21.44c-2.81,0-4.89-1.96-4.89-5.18c0-3.2,2.04-5.15,4.89-5.15c3.02,0,4.69,2.15,4.69,4.48
			c0,0.44,0,0.67-0.04,1h-8.69c0.07,2.8,1.96,4.13,4.04,4.13c1.98,0,3.41-1.06,3.74-2.72h0.87
			C190.34,19.98,188.69,21.44,186.11,21.44z M182.08,15.91h7.89c0.13-2.8-1.83-4.09-3.87-4.09
			C184.04,11.81,182.17,13.13,182.08,15.91z"/>
		<path class="st0" d="M196.42,11.11h0.89l2.78,9.36l3.31-9.36h0.82l3.29,9.32l2.78-9.32h0.88l-3.25,10.33h-0.82l-3.29-9.15
			l-3.31,9.15h-0.82L196.42,11.11z"/>
		<g>
			<rect x="174.47" y="11.25" class="st0" width="0.84" height="10.19"/>
			<ellipse class="st0" cx="174.89" cy="8.29" rx="0.71" ry="0.73"/>
		</g>
	</g>
	<g>
		<path class="st0" d="M25.16,5.09 M25.16,4.08h-1.49v1.01l1.49,0c2.45,0,4.45,2,4.45,4.45s-2,4.45-4.45,4.45h-8.13V15l8.13,0
			c3.01,0,5.46-2.44,5.46-5.46C30.61,6.53,28.17,4.08,25.16,4.08L25.16,4.08"/>
		<rect x="2.83" y="13.99" class="st0" width="11.79" height="1.01"/>
		<rect x="2.83" y="23.9" class="st0" width="11.79" height="1.01"/>
		<rect x="2.83" y="4.08" class="st0" width="5.28" height="1.01"/>
		<polygon class="st1" points="8.81,4.08 8.81,5.09 15.32,5.09 15.32,24.91 16.33,24.91 16.33,5.09 22.84,5.09 22.84,4.08 		"/>
		<polygon class="st0" points="30.61,23.35 24.19,15.69 22.88,15.69 30.61,24.92 		"/>
	</g>
</g>
</svg>
