<svg xmlns="http://www.w3.org/2000/svg" xmlns:xlink="http://www.w3.org/1999/xlink" width="180" zoomAndPan="magnify" viewBox="0 0 135 52.499999" height="70" preserveAspectRatio="xMidYMid meet" version="1.0"><defs><clipPath id="3ef71ba815"><path d="M 62 12.183594 L 71 12.183594 L 71 21 L 62 21 Z M 62 12.183594 " clip-rule="nonzero"/></clipPath><clipPath id="9164ba55c3"><path d="M 28.433594 21 L 60 21 L 60 39.671875 L 28.433594 39.671875 Z M 28.433594 21 " clip-rule="nonzero"/></clipPath><clipPath id="d4db523283"><path d="M 61 21 L 72 21 L 72 39.671875 L 61 39.671875 Z M 61 21 " clip-rule="nonzero"/></clipPath><clipPath id="ecfe569e07"><path d="M 72 21 L 94 21 L 94 39.671875 L 72 39.671875 Z M 72 21 " clip-rule="nonzero"/></clipPath><clipPath id="5919114f53"><path d="M 93 17 L 106.441406 17 L 106.441406 39.671875 L 93 39.671875 Z M 93 17 " clip-rule="nonzero"/></clipPath></defs><g clip-path="url(#3ef71ba815)"><path fill="#f99d1c" d="M 66.320312 12.183594 C 66.582031 12.183594 66.839844 12.207031 67.097656 12.253906 C 67.351562 12.304688 67.597656 12.378906 67.839844 12.476562 C 68.082031 12.574219 68.3125 12.695312 68.527344 12.839844 C 68.746094 12.984375 68.945312 13.144531 69.128906 13.328125 C 69.316406 13.511719 69.480469 13.710938 69.625 13.925781 C 69.773438 14.140625 69.894531 14.367188 69.996094 14.609375 C 70.097656 14.847656 70.171875 15.09375 70.222656 15.347656 C 70.277344 15.601562 70.300781 15.859375 70.304688 16.117188 C 70.304688 16.378906 70.28125 16.636719 70.230469 16.890625 C 70.179688 17.144531 70.105469 17.390625 70.007812 17.632812 C 69.910156 17.871094 69.789062 18.101562 69.644531 18.316406 C 69.5 18.53125 69.335938 18.734375 69.152344 18.917969 C 68.96875 19.101562 68.769531 19.265625 68.554688 19.410156 C 68.339844 19.554688 68.109375 19.679688 67.871094 19.78125 C 67.628906 19.878906 67.382812 19.957031 67.125 20.007812 C 66.871094 20.058594 66.613281 20.085938 66.351562 20.085938 C 66.09375 20.085938 65.835938 20.0625 65.578125 20.011719 C 65.324219 19.964844 65.074219 19.890625 64.835938 19.792969 C 64.59375 19.691406 64.363281 19.574219 64.148438 19.429688 C 63.929688 19.285156 63.730469 19.121094 63.542969 18.941406 C 63.359375 18.757812 63.195312 18.558594 63.050781 18.34375 C 62.902344 18.128906 62.78125 17.902344 62.679688 17.660156 C 62.578125 17.421875 62.503906 17.175781 62.449219 16.921875 C 62.398438 16.667969 62.371094 16.410156 62.371094 16.148438 C 62.371094 15.628906 62.472656 15.125 62.671875 14.640625 C 62.871094 14.15625 63.15625 13.726562 63.527344 13.355469 C 63.898438 12.984375 64.324219 12.695312 64.808594 12.492188 C 65.292969 12.289062 65.796875 12.1875 66.320312 12.183594 " fill-opacity="1" fill-rule="nonzero"/></g><g clip-path="url(#9164ba55c3)"><path fill="#f99d1c" d="M 38.375 39.441406 L 28.621094 39.441406 L 28.621094 36.285156 L 29.34375 36.285156 C 29.816406 36.285156 29.980469 36.019531 29.980469 35.582031 L 29.980469 25.84375 C 29.980469 25.402344 29.816406 25.140625 29.34375 25.140625 L 28.621094 25.140625 L 28.621094 21.925781 L 37.417969 21.925781 L 37.417969 24.652344 C 38.671875 22.890625 40.3125 21.558594 42.929688 21.558594 C 46.394531 21.558594 47.554688 22.941406 47.953125 24.984375 C 48.230469 24.464844 48.574219 23.996094 48.980469 23.570312 C 49.386719 23.144531 49.84375 22.78125 50.347656 22.480469 C 50.851562 22.179688 51.390625 21.949219 51.957031 21.792969 C 52.523438 21.636719 53.101562 21.558594 53.691406 21.558594 C 58.085938 21.558594 58.683594 23.660156 58.683594 26.78125 L 58.683594 35.59375 C 58.683594 36.03125 58.878906 36.296875 59.421875 36.296875 L 59.984375 36.296875 L 59.984375 39.449219 L 50.394531 39.449219 L 50.394531 36.296875 L 50.652344 36.296875 C 51.097656 36.296875 51.292969 36.03125 51.292969 35.59375 L 51.292969 27.585938 C 51.292969 26.140625 50.796875 25.675781 49.785156 25.675781 C 48.445312 25.675781 48.007812 26.78125 48.007812 28.484375 L 48.007812 35.5625 C 48.007812 36.03125 48.207031 36.296875 48.648438 36.296875 L 49.046875 36.296875 L 49.046875 39.449219 L 39.722656 39.449219 L 39.722656 36.296875 L 39.992188 36.296875 C 40.417969 36.296875 40.617188 36.03125 40.617188 35.59375 L 40.617188 27.585938 C 40.617188 26.140625 40.121094 25.675781 39.109375 25.675781 C 37.769531 25.675781 37.335938 26.78125 37.335938 28.484375 L 37.335938 35.5625 C 37.335938 36.03125 37.507812 36.296875 37.976562 36.296875 L 38.375 36.296875 Z M 38.375 39.441406 " fill-opacity="1" fill-rule="nonzero"/></g><g clip-path="url(#d4db523283)"><path fill="#f99d1c" d="M 62.6875 25.84375 C 62.6875 25.402344 62.523438 25.140625 62.050781 25.140625 L 61.316406 25.140625 L 61.316406 21.925781 L 70.046875 21.925781 L 70.046875 35.589844 C 70.046875 36.054688 70.214844 36.324219 70.683594 36.324219 L 71.335938 36.324219 L 71.335938 39.476562 L 61.316406 39.476562 L 61.316406 36.324219 L 62.039062 36.324219 C 62.515625 36.324219 62.675781 36.054688 62.675781 35.621094 Z M 62.6875 25.84375 " fill-opacity="1" fill-rule="nonzero"/></g><g clip-path="url(#ecfe569e07)"><path fill="#f99d1c" d="M 82.613281 39.441406 L 72.855469 39.441406 L 72.855469 36.285156 L 73.578125 36.285156 C 74.046875 36.285156 74.214844 36.019531 74.214844 35.582031 L 74.214844 25.84375 C 74.214844 25.402344 74.046875 25.140625 73.578125 25.140625 L 72.855469 25.140625 L 72.855469 21.925781 L 81.574219 21.925781 L 81.574219 24.683594 C 82.222656 23.703125 83.066406 22.9375 84.105469 22.382812 C 85.144531 21.828125 86.253906 21.554688 87.433594 21.558594 C 91.5 21.558594 92.378906 23.660156 92.378906 26.78125 L 92.378906 35.59375 C 92.378906 36.03125 92.542969 36.296875 93.082031 36.296875 L 93.671875 36.296875 L 93.671875 39.449219 L 83.953125 39.449219 L 83.953125 36.296875 L 84.351562 36.296875 C 84.785156 36.296875 84.992188 36.03125 84.992188 35.59375 L 84.992188 27.585938 C 84.992188 26.140625 84.464844 25.675781 83.480469 25.675781 C 82.5 25.675781 81.574219 26.445312 81.574219 28.148438 L 81.574219 35.5625 C 81.558594 35.660156 81.570312 35.757812 81.601562 35.851562 C 81.632812 35.949219 81.683594 36.03125 81.753906 36.105469 C 81.820312 36.175781 81.90625 36.226562 82 36.261719 C 82.09375 36.296875 82.191406 36.308594 82.289062 36.296875 L 82.613281 36.296875 Z M 82.613281 39.441406 " fill-opacity="1" fill-rule="nonzero"/></g><g clip-path="url(#5919114f53)"><path fill="#f99d1c" d="M 93.484375 21.925781 L 96.082031 21.824219 L 96.390625 17.84375 L 102.980469 17.84375 L 102.980469 21.925781 L 106.085938 21.925781 L 106.085938 25.210938 L 102.980469 25.210938 L 102.980469 33.144531 C 102.980469 35.214844 103.378906 35.886719 105.664062 35.886719 L 106.25 35.886719 L 106.25 39.441406 C 104.800781 39.597656 103.34375 39.675781 101.886719 39.671875 C 97.726562 39.671875 95.621094 38.382812 95.621094 34.941406 L 95.621094 25.210938 L 93.511719 25.210938 Z M 93.484375 21.925781 " fill-opacity="1" fill-rule="nonzero"/></g></svg>