<svg width="52" height="53" viewBox="0 0 52 53" fill="none" xmlns="http://www.w3.org/2000/svg">
<path d="M26.0005 0C11.6425 0 0.000488281 11.8658 0.000488281 26.5C0.000488281 41.1342 11.6425 53 26.0005 53C40.3585 53 52.0005 41.1342 52.0005 26.5C52.0005 11.8658 40.3585 0 26.0005 0ZM34.3634 26.9081L21.6884 36.3074C21.6189 36.3583 21.537 36.3886 21.4517 36.3952C21.3664 36.4017 21.2809 36.3842 21.2048 36.3444C21.1286 36.3047 21.0646 36.2443 21.0199 36.1699C20.9752 36.0956 20.9515 36.0101 20.9514 35.9229V17.1363C20.9511 17.0489 20.9746 16.9631 21.0192 16.8885C21.0638 16.8139 21.1278 16.7533 21.2041 16.7135C21.2805 16.6737 21.3661 16.6562 21.4516 16.6629C21.5371 16.6697 21.6191 16.7004 21.6884 16.7518L34.3634 26.1451C34.4233 26.1883 34.4722 26.2454 34.5059 26.3118C34.5396 26.3782 34.5572 26.4519 34.5572 26.5266C34.5572 26.6014 34.5396 26.675 34.5059 26.7414C34.4722 26.8078 34.4233 26.865 34.3634 26.9081Z" fill="white" fill-opacity="0.74"/>
</svg>
