<svg width="102" height="102" viewBox="0 0 102 102" fill="none" xmlns="http://www.w3.org/2000/svg">
<path d="M98.4661 55.0282C97.749 46.9778 96.5676 45.4099 96.1213 44.8202C95.0954 43.4576 93.4538 42.5671 91.7166 41.6327C91.6184 41.5808 91.5335 41.5067 91.4688 41.4164C91.4041 41.326 91.3613 41.2219 91.3437 41.1122C91.3261 41.0024 91.3343 40.8901 91.3675 40.7841C91.4008 40.6781 91.4582 40.5812 91.5353 40.5012C91.857 40.1749 92.1043 39.7829 92.2601 39.3519C92.4158 38.921 92.4765 38.4615 92.4378 38.005C92.3629 37.1954 91.9864 36.4435 91.3831 35.8984C90.7797 35.3534 89.9936 35.055 89.1805 35.0625H86.0727C85.9395 35.0633 85.8065 35.0719 85.6743 35.0884C85.5836 35.049 85.4896 35.0177 85.3934 34.9948C83.5526 31.104 81.0325 25.7769 75.809 23.1771C68.0614 19.3242 53.7893 19.125 51.0003 19.125C48.2112 19.125 33.9392 19.3242 26.2015 23.1711C20.978 25.7709 18.4579 31.098 16.6171 34.9888L16.6012 35.0207C16.5094 35.0336 16.4192 35.0563 16.3322 35.0884C16.2 35.0719 16.067 35.0633 15.9338 35.0625H12.82C12.007 35.055 11.2208 35.3534 10.6175 35.8984C10.0142 36.4435 9.6377 37.1954 9.56278 38.005C9.52739 38.4605 9.59077 38.9182 9.74859 39.347C9.90641 39.7757 10.1549 40.1654 10.4772 40.4892C10.5543 40.5693 10.6117 40.6661 10.645 40.7721C10.6782 40.8782 10.6864 40.9905 10.6688 41.1002C10.6512 41.21 10.6084 41.3141 10.5437 41.4044C10.479 41.4948 10.3941 41.5688 10.2959 41.6208C8.55872 42.5611 6.90919 43.4516 5.89118 44.8083C5.44493 45.4059 4.26555 46.9658 3.54637 55.0163C3.14793 59.5465 3.08817 64.2361 3.40094 67.2563C4.05637 73.5316 5.28555 77.3248 5.33735 77.4821C5.52597 78.0549 5.87317 78.5624 6.33864 78.9457C6.80411 79.329 7.36877 79.5724 7.96704 79.6477V79.6875C7.96704 80.5329 8.30286 81.3436 8.90063 81.9414C9.49841 82.5392 10.3092 82.875 11.1545 82.875H22.3108C23.1562 82.875 23.9669 82.5392 24.5647 81.9414C25.1625 81.3436 25.4983 80.5329 25.4983 79.6875C27.2136 79.6875 28.4069 79.3807 29.6719 79.054C31.4983 78.5619 33.3652 78.2345 35.25 78.0758C41.3282 77.4961 47.3725 77.2969 51.0003 77.2969C54.5543 77.2969 60.8656 77.4961 66.9537 78.0758C68.846 78.2348 70.7203 78.5635 72.5538 79.058C73.765 79.3687 74.9145 79.6556 76.5063 79.6855C76.5063 80.5309 76.8421 81.3416 77.4398 81.9394C78.0376 82.5372 78.8484 82.873 79.6938 82.873H90.85C91.6954 82.873 92.5061 82.5372 93.1039 81.9394C93.7017 81.3416 94.0375 80.5309 94.0375 79.6855V79.6616C94.6372 79.5878 95.2036 79.345 95.6706 78.9616C96.1376 78.5782 96.486 78.0699 96.6752 77.4961C96.727 77.3387 97.9561 73.5456 98.6116 67.2702C98.9243 64.2481 98.8686 59.5664 98.4661 55.0282ZM22.3785 37.7141C23.9723 34.3274 25.7951 30.4944 29.0404 28.8788C33.73 26.5439 43.4499 25.492 51.0003 25.492C58.5507 25.492 68.2706 26.5359 72.9602 28.8788C76.2054 30.4944 78.0203 34.3294 79.622 37.7141L79.8213 38.1464C79.9378 38.3925 79.9893 38.6644 79.9708 38.936C79.9524 39.2077 79.8647 39.4701 79.7161 39.6983C79.5675 39.9264 79.3629 40.1127 79.1218 40.2393C78.8807 40.3659 78.6113 40.4286 78.3391 40.4215C71.719 40.2422 57.7737 39.6684 51.0003 39.6684C44.2268 39.6684 30.2815 40.2561 23.6515 40.4354C23.3793 40.4425 23.1099 40.3798 22.8688 40.2532C22.6277 40.1266 22.4231 39.9403 22.2745 39.7122C22.1259 39.4841 22.0382 39.2216 22.0198 38.95C22.0013 38.6783 22.0528 38.4065 22.1693 38.1604C22.2391 38.0129 22.3128 37.8635 22.3785 37.7141ZM24.7552 53.5779C21.3283 53.9903 17.8794 54.1939 14.4277 54.1875C12.316 54.1875 10.1385 53.5898 9.73411 51.7092C9.45719 50.4442 9.48708 49.733 9.63649 49.0178C9.762 48.4102 9.96122 47.9679 10.9573 47.8125C13.5472 47.4141 14.9955 47.9141 19.2348 49.1632C22.0458 49.99 24.0739 51.0916 25.2293 51.9642C25.8091 52.3945 25.5003 53.5181 24.7552 53.5779ZM68.8583 69.9138C66.2365 70.2127 60.9931 70.1031 51.06 70.1031C41.127 70.1031 35.8856 70.2127 33.2638 69.9138C30.5584 69.613 27.11 67.055 29.4647 64.776C31.0326 63.2739 34.6902 62.1503 39.5611 61.5187C44.432 60.8872 46.494 60.5625 51.0401 60.5625C55.5863 60.5625 57.439 60.7617 62.5191 61.5207C67.5992 62.2798 71.4381 63.4173 72.6155 64.778C74.7631 67.2164 71.5617 69.5971 68.8583 69.9258V69.9138ZM92.2665 51.7072C91.868 53.5958 89.6766 54.1855 87.5729 54.1855C84.0551 54.1863 80.5403 53.9828 77.0461 53.5759C76.4365 53.5181 76.1536 52.4483 76.7712 51.9622C77.9088 51.0677 79.9587 49.988 82.7657 49.1612C87.0051 47.9121 89.4495 47.4121 91.5493 47.8284C92.0613 47.93 92.3322 48.4799 92.3641 48.8245C92.5046 49.7842 92.4715 50.7613 92.2665 51.7092V51.7072Z" fill="#4166EB"/>
</svg>
