<svg width="102" height="102" viewBox="0 0 102 102" fill="none" xmlns="http://www.w3.org/2000/svg">
<path d="M80.7501 8.5H38.2501C33.5623 8.5 29.7501 12.3122 29.7501 17V40.7405L9.74532 60.7453C9.15113 61.3396 8.7465 62.0968 8.58259 62.9211C8.41868 63.7454 8.50284 64.5998 8.82444 65.3763C9.14604 66.1528 9.69063 66.8164 10.3894 67.2835C11.0881 67.7505 11.9096 67.9998 12.7501 68V89.25C12.7501 90.3772 13.1978 91.4582 13.9949 92.2552C14.7919 93.0522 15.8729 93.5 17.0001 93.5H85.0001C86.1272 93.5 87.2082 93.0522 88.0053 92.2552C88.8023 91.4582 89.2501 90.3772 89.2501 89.25V17C89.2501 12.3122 85.4378 8.5 80.7501 8.5ZM46.7501 85H21.2501V61.2595L34.0001 48.5095L46.7501 61.2595V85ZM80.7501 85H55.2501V68C56.0914 68.0019 56.9144 67.7537 57.6144 67.287C58.3145 66.8204 58.8601 66.1562 59.1821 65.3789C59.504 64.6016 59.5878 63.7462 59.4227 62.9212C59.2576 62.0962 58.8511 61.3388 58.2548 60.7453L38.2501 40.7405V17H80.7501V85Z" fill="#4166EB"/>
<path d="M46.75 25.5H55.25V34H46.75V25.5ZM63.75 25.5H72.25V34H63.75V25.5ZM63.75 42.6318H72.25V51H63.75V42.6318ZM63.75 59.5H72.25V68H63.75V59.5ZM29.75 63.75H38.25V72.25H29.75V63.75Z" fill="#4166EB"/>
</svg>
